solid OpenSCAD_Model
  facet normal -1 0 0
    outer loop
      vertex -20 -45 -3
      vertex -20 -45 3
      vertex -20 2 -3
    endloop
  endfacet
  facet normal -1 0 0
    outer loop
      vertex -20 2 -3
      vertex -20 -45 3
      vertex -20 2 3
    endloop
  endfacet
  facet normal 0 -1 0
    outer loop
      vertex -20 -45 3
      vertex -20 -45 -3
      vertex -19 -45 -3
    endloop
  endfacet
  facet normal 0 -1 0
    outer loop
      vertex -19 -45 3
      vertex -20 -45 3
      vertex -19 -45 -3
    endloop
  endfacet
  facet normal 0 0 -1
    outer loop
      vertex -20 -45 -3
      vertex -20 2 -3
      vertex -19 -45 -3
    endloop
  endfacet
  facet normal 0 0 -1
    outer loop
      vertex -17 -13 -3
      vertex -20 2 -3
      vertex -15 2 -3
    endloop
  endfacet
  facet normal 0 0 -1
    outer loop
      vertex -15 80 -3
      vertex -14.9704 80.9419 -3
      vertex -15 2 -3
    endloop
  endfacet
  facet normal 0 0 -1
    outer loop
      vertex -15 2 -3
      vertex -14.9704 80.9419 -3
      vertex -14.8817 81.88 -3
    endloop
  endfacet
  facet normal 0 0 -1
    outer loop
      vertex -15 2 -3
      vertex -14.8817 81.88 -3
      vertex -14.7343 82.8107 -3
    endloop
  endfacet
  facet normal 0 0 -1
    outer loop
      vertex -15 2 -3
      vertex -14.7343 82.8107 -3
      vertex -14.5287 83.7303 -3
    endloop
  endfacet
  facet normal 0 0 -1
    outer loop
      vertex -15 2 -3
      vertex -14.5287 83.7303 -3
      vertex -14.2658 84.6353 -3
    endloop
  endfacet
  facet normal 0 0 -1
    outer loop
      vertex -15 2 -3
      vertex -14.2658 84.6353 -3
      vertex -13.9466 85.5219 -3
    endloop
  endfacet
  facet normal 0 0 -1
    outer loop
      vertex -15 2 -3
      vertex -13.9466 85.5219 -3
      vertex -13.5724 86.3867 -3
    endloop
  endfacet
  facet normal 0 0 -1
    outer loop
      vertex -15 2 -3
      vertex -13.5724 86.3867 -3
      vertex -13.1446 87.2263 -3
    endloop
  endfacet
  facet normal 0 0 -1
    outer loop
      vertex -15 2 -3
      vertex -13.1446 87.2263 -3
      vertex -12.6649 88.0374 -3
    endloop
  endfacet
  facet normal 0 0 -1
    outer loop
      vertex -15 2 -3
      vertex -12.6649 88.0374 -3
      vertex -12.1353 88.8168 -3
    endloop
  endfacet
  facet normal 0 0 -1
    outer loop
      vertex -15 2 -3
      vertex -12.1353 88.8168 -3
      vertex -11.5577 89.5614 -3
    endloop
  endfacet
  facet normal 0 0 -1
    outer loop
      vertex -15 2 -3
      vertex -11.5577 89.5614 -3
      vertex -10.9345 90.2682 -3
    endloop
  endfacet
  facet normal 0 0 -1
    outer loop
      vertex -15 2 -3
      vertex -10.9345 90.2682 -3
      vertex -10.2682 90.9345 -3
    endloop
  endfacet
  facet normal 0 0 -1
    outer loop
      vertex -15 2 -3
      vertex -10.2682 90.9345 -3
      vertex -9.56136 91.5577 -3
    endloop
  endfacet
  facet normal 0 0 -1
    outer loop
      vertex -15 2 -3
      vertex -9.56136 91.5577 -3
      vertex -8.81678 92.1353 -3
    endloop
  endfacet
  facet normal 0 0 -1
    outer loop
      vertex -15 2 -3
      vertex -8.81678 92.1353 -3
      vertex -8.0374 92.6649 -3
    endloop
  endfacet
  facet normal 0 0 -1
    outer loop
      vertex -15 2 -3
      vertex -8.0374 92.6649 -3
      vertex -7.2263 93.1446 -3
    endloop
  endfacet
  facet normal 0 0 -1
    outer loop
      vertex -17 -45 -3
      vertex -18 -45 -3
      vertex -17 -13 -3
    endloop
  endfacet
  facet normal 0 0 -1
    outer loop
      vertex -16 -13 -3
      vertex -6.38669 93.5724 -3
      vertex -5.52187 93.9466 -3
    endloop
  endfacet
  facet normal 0 0 -1
    outer loop
      vertex -15 2 -3
      vertex -6.38669 93.5724 -3
      vertex -16 -13 -3
    endloop
  endfacet
  facet normal 0 0 -1
    outer loop
      vertex -17 -13 -3
      vertex -15 2 -3
      vertex -16 -13 -3
    endloop
  endfacet
  facet normal 0 0 -1
    outer loop
      vertex -15 -13 -3
      vertex -1.88 94.8817 -3
      vertex -0.941858 94.9704 -3
    endloop
  endfacet
  facet normal 0 0 -1
    outer loop
      vertex -15 -45 -3
      vertex -16 -45 -3
      vertex -15 -13 -3
    endloop
  endfacet
  facet normal 0 0 -1
    outer loop
      vertex -14 -13 -3
      vertex 2.81072 94.7343 -3
      vertex 3.73035 94.5287 -3
    endloop
  endfacet
  facet normal 0 0 -1
    outer loop
      vertex -15 -13 -3
      vertex 0 95 -3
      vertex 0.941858 94.9704 -3
    endloop
  endfacet
  facet normal 0 0 -1
    outer loop
      vertex -15 -13 -3
      vertex 0.941858 94.9704 -3
      vertex 1.88 94.8817 -3
    endloop
  endfacet
  facet normal 0 0 -1
    outer loop
      vertex -15 -13 -3
      vertex 1.88 94.8817 -3
      vertex 2.81072 94.7343 -3
    endloop
  endfacet
  facet normal 0 0 -1
    outer loop
      vertex -13 -13 -3
      vertex 6.38669 93.5724 -3
      vertex 7.2263 93.1446 -3
    endloop
  endfacet
  facet normal 0 0 -1
    outer loop
      vertex -18 -13 -3
      vertex -17 -13 -3
      vertex -18 -45 -3
    endloop
  endfacet
  facet normal 0 0 -1
    outer loop
      vertex -12 -13 -3
      vertex 10.2682 90.9345 -3
      vertex 10.9345 90.2682 -3
    endloop
  endfacet
  facet normal 0 0 -1
    outer loop
      vertex -13 -13 -3
      vertex 8.0374 92.6649 -3
      vertex 8.81678 92.1353 -3
    endloop
  endfacet
  facet normal 0 0 -1
    outer loop
      vertex -13 -13 -3
      vertex 8.81678 92.1353 -3
      vertex 9.56136 91.5577 -3
    endloop
  endfacet
  facet normal 0 0 -1
    outer loop
      vertex -13 -13 -3
      vertex 9.56136 91.5577 -3
      vertex 10.2682 90.9345 -3
    endloop
  endfacet
  facet normal 0 0 -1
    outer loop
      vertex -13 -13 -3
      vertex 10.2682 90.9345 -3
      vertex -12 -13 -3
    endloop
  endfacet
  facet normal 0 0 -1
    outer loop
      vertex -16 -13 -3
      vertex -3.73035 94.5287 -3
      vertex -2.81072 94.7343 -3
    endloop
  endfacet
  facet normal 0 0 -1
    outer loop
      vertex -11 -13 -3
      vertex 13.5724 86.3867 -3
      vertex 13.9466 85.5219 -3
    endloop
  endfacet
  facet normal 0 0 -1
    outer loop
      vertex -16 -13 -3
      vertex -5.52187 93.9466 -3
      vertex -4.63525 94.2658 -3
    endloop
  endfacet
  facet normal 0 0 -1
    outer loop
      vertex -11 -45 -3
      vertex -12 -45 -3
      vertex -11 -13 -3
    endloop
  endfacet
  facet normal 0 0 -1
    outer loop
      vertex 4 -13 -3
      vertex 15 80 -3
      vertex 15 2 -3
    endloop
  endfacet
  facet normal 0 0 -1
    outer loop
      vertex 7 -13 -3
      vertex 15 2 -3
      vertex 20 2 -3
    endloop
  endfacet
  facet normal 0 0 -1
    outer loop
      vertex 19 -13 -3
      vertex 20 2 -3
      vertex 20 -13 -3
    endloop
  endfacet
  facet normal 0 0 -1
    outer loop
      vertex 18 -13 -3
      vertex 20 2 -3
      vertex 19 -13 -3
    endloop
  endfacet
  facet normal 0 0 -1
    outer loop
      vertex 18 -13 -3
      vertex 19 -13 -3
      vertex 18 -45 -3
    endloop
  endfacet
  facet normal 0 0 -1
    outer loop
      vertex 17 -13 -3
      vertex 20 2 -3
      vertex 18 -13 -3
    endloop
  endfacet
  facet normal 0 0 -1
    outer loop
      vertex 16 -13 -3
      vertex 20 2 -3
      vertex 17 -13 -3
    endloop
  endfacet
  facet normal 0 0 -1
    outer loop
      vertex 14 -13 -3
      vertex 15 -13 -3
      vertex 14 -45 -3
    endloop
  endfacet
  facet normal 0 0 -1
    outer loop
      vertex 15 -13 -3
      vertex 20 2 -3
      vertex 16 -13 -3
    endloop
  endfacet
  facet normal 0 0 -1
    outer loop
      vertex 14 -13 -3
      vertex 20 2 -3
      vertex 15 -13 -3
    endloop
  endfacet
  facet normal 0 0 -1
    outer loop
      vertex 10 -13 -3
      vertex 11 -13 -3
      vertex 10 -45 -3
    endloop
  endfacet
  facet normal 0 0 -1
    outer loop
      vertex 13 -13 -3
      vertex 20 2 -3
      vertex 14 -13 -3
    endloop
  endfacet
  facet normal 0 0 -1
    outer loop
      vertex -7 -45 -3
      vertex -8 -45 -3
      vertex -7 -13 -3
    endloop
  endfacet
  facet normal 0 0 -1
    outer loop
      vertex 12 -13 -3
      vertex 20 2 -3
      vertex 13 -13 -3
    endloop
  endfacet
  facet normal 0 0 -1
    outer loop
      vertex 6 -13 -3
      vertex 7 -13 -3
      vertex 6 -45 -3
    endloop
  endfacet
  facet normal 0 0 -1
    outer loop
      vertex 2 -13 -3
      vertex 3 -13 -3
      vertex 2 -45 -3
    endloop
  endfacet
  facet normal 0 0 -1
    outer loop
      vertex 11 -13 -3
      vertex 20 2 -3
      vertex 12 -13 -3
    endloop
  endfacet
  facet normal 0 0 -1
    outer loop
      vertex -14 -13 -3
      vertex 4.63525 94.2658 -3
      vertex 5.52187 93.9466 -3
    endloop
  endfacet
  facet normal 0 0 -1
    outer loop
      vertex 10 -13 -3
      vertex 20 2 -3
      vertex 11 -13 -3
    endloop
  endfacet
  facet normal 0 0 -1
    outer loop
      vertex -2 -13 -3
      vertex -1 -13 -3
      vertex -2 -45 -3
    endloop
  endfacet
  facet normal 0 0 -1
    outer loop
      vertex 9 -13 -3
      vertex 20 2 -3
      vertex 10 -13 -3
    endloop
  endfacet
  facet normal 0 0 -1
    outer loop
      vertex 8 -13 -3
      vertex 20 2 -3
      vertex 9 -13 -3
    endloop
  endfacet
  facet normal 0 0 -1
    outer loop
      vertex -6 -13 -3
      vertex -5 -13 -3
      vertex -6 -45 -3
    endloop
  endfacet
  facet normal 0 0 -1
    outer loop
      vertex 7 -13 -3
      vertex 20 2 -3
      vertex 8 -13 -3
    endloop
  endfacet
  facet normal 0 0 -1
    outer loop
      vertex 6 -13 -3
      vertex 15 2 -3
      vertex 7 -13 -3
    endloop
  endfacet
  facet normal 0 0 -1
    outer loop
      vertex -9 -45 -3
      vertex -10 -45 -3
      vertex -9 -13 -3
    endloop
  endfacet
  facet normal 0 0 -1
    outer loop
      vertex -10 -13 -3
      vertex -9 -13 -3
      vertex -10 -45 -3
    endloop
  endfacet
  facet normal 0 0 -1
    outer loop
      vertex 5 -13 -3
      vertex 15 2 -3
      vertex 6 -13 -3
    endloop
  endfacet
  facet normal 0 0 -1
    outer loop
      vertex -14 -13 -3
      vertex -13 -13 -3
      vertex -14 -45 -3
    endloop
  endfacet
  facet normal 0 0 -1
    outer loop
      vertex -11 -13 -3
      vertex 15 80 -3
      vertex -10 -13 -3
    endloop
  endfacet
  facet normal 0 0 -1
    outer loop
      vertex -16 -13 -3
      vertex -2.81072 94.7343 -3
      vertex -1.88 94.8817 -3
    endloop
  endfacet
  facet normal 0 0 -1
    outer loop
      vertex -12 -13 -3
      vertex -11 -13 -3
      vertex -12 -45 -3
    endloop
  endfacet
  facet normal 0 0 -1
    outer loop
      vertex 3 -13 -3
      vertex 15 80 -3
      vertex 4 -13 -3
    endloop
  endfacet
  facet normal 0 0 -1
    outer loop
      vertex 2 -13 -3
      vertex 15 80 -3
      vertex 3 -13 -3
    endloop
  endfacet
  facet normal 0 0 -1
    outer loop
      vertex -12 -13 -3
      vertex 13.5724 86.3867 -3
      vertex -11 -13 -3
    endloop
  endfacet
  facet normal 0 0 -1
    outer loop
      vertex -12 -13 -3
      vertex 13.1446 87.2263 -3
      vertex 13.5724 86.3867 -3
    endloop
  endfacet
  facet normal 0 0 -1
    outer loop
      vertex 1 -13 -3
      vertex 15 80 -3
      vertex 2 -13 -3
    endloop
  endfacet
  facet normal 0 0 -1
    outer loop
      vertex 0 -13 -3
      vertex 15 80 -3
      vertex 1 -13 -3
    endloop
  endfacet
  facet normal 0 0 -1
    outer loop
      vertex -12 -13 -3
      vertex 12.6649 88.0374 -3
      vertex 13.1446 87.2263 -3
    endloop
  endfacet
  facet normal 0 0 -1
    outer loop
      vertex -12 -13 -3
      vertex 12.1353 88.8168 -3
      vertex 12.6649 88.0374 -3
    endloop
  endfacet
  facet normal 0 0 -1
    outer loop
      vertex -1 -13 -3
      vertex 15 80 -3
      vertex 0 -13 -3
    endloop
  endfacet
  facet normal 0 0 -1
    outer loop
      vertex -11 -13 -3
      vertex 14.9704 80.9419 -3
      vertex 15 80 -3
    endloop
  endfacet
  facet normal 0 0 -1
    outer loop
      vertex -2 -13 -3
      vertex 15 80 -3
      vertex -1 -13 -3
    endloop
  endfacet
  facet normal 0 0 -1
    outer loop
      vertex -12 -13 -3
      vertex 11.5577 89.5614 -3
      vertex 12.1353 88.8168 -3
    endloop
  endfacet
  facet normal 0 0 -1
    outer loop
      vertex -12 -13 -3
      vertex 10.9345 90.2682 -3
      vertex 11.5577 89.5614 -3
    endloop
  endfacet
  facet normal 0 0 -1
    outer loop
      vertex -3 -13 -3
      vertex 15 80 -3
      vertex -2 -13 -3
    endloop
  endfacet
  facet normal 0 0 -1
    outer loop
      vertex -11 -13 -3
      vertex 14.8817 81.88 -3
      vertex 14.9704 80.9419 -3
    endloop
  endfacet
  facet normal 0 0 -1
    outer loop
      vertex -4 -13 -3
      vertex 15 80 -3
      vertex -3 -13 -3
    endloop
  endfacet
  facet normal 0 0 -1
    outer loop
      vertex -8 -13 -3
      vertex -7 -13 -3
      vertex -8 -45 -3
    endloop
  endfacet
  facet normal 0 0 -1
    outer loop
      vertex -5 -13 -3
      vertex 15 80 -3
      vertex -4 -13 -3
    endloop
  endfacet
  facet normal 0 0 -1
    outer loop
      vertex -11 -13 -3
      vertex 14.7343 82.8107 -3
      vertex 14.8817 81.88 -3
    endloop
  endfacet
  facet normal 0 0 -1
    outer loop
      vertex -6 -13 -3
      vertex 15 80 -3
      vertex -5 -13 -3
    endloop
  endfacet
  facet normal 0 0 -1
    outer loop
      vertex -4 -13 -3
      vertex -3 -13 -3
      vertex -4 -45 -3
    endloop
  endfacet
  facet normal 0 0 -1
    outer loop
      vertex -7 -13 -3
      vertex 15 80 -3
      vertex -6 -13 -3
    endloop
  endfacet
  facet normal 0 0 -1
    outer loop
      vertex -11 -13 -3
      vertex 14.5287 83.7303 -3
      vertex 14.7343 82.8107 -3
    endloop
  endfacet
  facet normal 0 0 -1
    outer loop
      vertex -8 -13 -3
      vertex 15 80 -3
      vertex -7 -13 -3
    endloop
  endfacet
  facet normal 0 0 -1
    outer loop
      vertex -14 -13 -3
      vertex 3.73035 94.5287 -3
      vertex 4.63525 94.2658 -3
    endloop
  endfacet
  facet normal 0 0 -1
    outer loop
      vertex 0 -13 -3
      vertex 1 -13 -3
      vertex 0 -45 -3
    endloop
  endfacet
  facet normal 0 0 -1
    outer loop
      vertex -9 -13 -3
      vertex 15 80 -3
      vertex -8 -13 -3
    endloop
  endfacet
  facet normal 0 0 -1
    outer loop
      vertex -11 -13 -3
      vertex 14.2658 84.6353 -3
      vertex 14.5287 83.7303 -3
    endloop
  endfacet
  facet normal 0 0 -1
    outer loop
      vertex -10 -13 -3
      vertex 15 80 -3
      vertex -9 -13 -3
    endloop
  endfacet
  facet normal 0 0 -1
    outer loop
      vertex -14 -13 -3
      vertex 5.52187 93.9466 -3
      vertex 6.38669 93.5724 -3
    endloop
  endfacet
  facet normal 0 0 -1
    outer loop
      vertex 4 -13 -3
      vertex 5 -13 -3
      vertex 4 -45 -3
    endloop
  endfacet
  facet normal 0 0 -1
    outer loop
      vertex -14 -13 -3
      vertex 6.38669 93.5724 -3
      vertex -13 -13 -3
    endloop
  endfacet
  facet normal 0 0 -1
    outer loop
      vertex -11 -13 -3
      vertex 13.9466 85.5219 -3
      vertex 14.2658 84.6353 -3
    endloop
  endfacet
  facet normal 0 0 -1
    outer loop
      vertex -16 -13 -3
      vertex -4.63525 94.2658 -3
      vertex -3.73035 94.5287 -3
    endloop
  endfacet
  facet normal 0 0 -1
    outer loop
      vertex 4 -13 -3
      vertex 15 2 -3
      vertex 5 -13 -3
    endloop
  endfacet
  facet normal 0 0 -1
    outer loop
      vertex -13 -45 -3
      vertex -14 -45 -3
      vertex -13 -13 -3
    endloop
  endfacet
  facet normal 0 0 -1
    outer loop
      vertex -13 -13 -3
      vertex 7.2263 93.1446 -3
      vertex 8.0374 92.6649 -3
    endloop
  endfacet
  facet normal 0 0 -1
    outer loop
      vertex -15 -13 -3
      vertex 2.81072 94.7343 -3
      vertex -14 -13 -3
    endloop
  endfacet
  facet normal 0 0 -1
    outer loop
      vertex -16 -13 -3
      vertex -1.88 94.8817 -3
      vertex -15 -13 -3
    endloop
  endfacet
  facet normal 0 0 -1
    outer loop
      vertex 8 -13 -3
      vertex 9 -13 -3
      vertex 8 -45 -3
    endloop
  endfacet
  facet normal 0 0 -1
    outer loop
      vertex -16 -13 -3
      vertex -15 -13 -3
      vertex -16 -45 -3
    endloop
  endfacet
  facet normal 0 0 -1
    outer loop
      vertex -15 -13 -3
      vertex -0.941858 94.9704 -3
      vertex 0 95 -3
    endloop
  endfacet
  facet normal 0 0 -1
    outer loop
      vertex 12 -13 -3
      vertex 13 -13 -3
      vertex 12 -45 -3
    endloop
  endfacet
  facet normal 0 0 -1
    outer loop
      vertex -15 2 -3
      vertex -7.2263 93.1446 -3
      vertex -6.38669 93.5724 -3
    endloop
  endfacet
  facet normal 0 0 -1
    outer loop
      vertex -18 -13 -3
      vertex -20 2 -3
      vertex -17 -13 -3
    endloop
  endfacet
  facet normal 0 0 -1
    outer loop
      vertex 16 -13 -3
      vertex 17 -13 -3
      vertex 16 -45 -3
    endloop
  endfacet
  facet normal 0 0 -1
    outer loop
      vertex -19 -13 -3
      vertex -20 2 -3
      vertex -18 -13 -3
    endloop
  endfacet
  facet normal 0 0 -1
    outer loop
      vertex -19 -45 -3
      vertex -20 2 -3
      vertex -19 -13 -3
    endloop
  endfacet
  facet normal 0 0 -1
    outer loop
      vertex -5 -45 -3
      vertex -6 -45 -3
      vertex -5 -13 -3
    endloop
  endfacet
  facet normal 0 0 -1
    outer loop
      vertex -3 -45 -3
      vertex -4 -45 -3
      vertex -3 -13 -3
    endloop
  endfacet
  facet normal 0 0 -1
    outer loop
      vertex -1 -45 -3
      vertex -2 -45 -3
      vertex -1 -13 -3
    endloop
  endfacet
  facet normal 0 0 -1
    outer loop
      vertex 1 -45 -3
      vertex 0 -45 -3
      vertex 1 -13 -3
    endloop
  endfacet
  facet normal 0 0 -1
    outer loop
      vertex 3 -45 -3
      vertex 2 -45 -3
      vertex 3 -13 -3
    endloop
  endfacet
  facet normal 0 0 -1
    outer loop
      vertex 5 -45 -3
      vertex 4 -45 -3
      vertex 5 -13 -3
    endloop
  endfacet
  facet normal 0 0 -1
    outer loop
      vertex 7 -45 -3
      vertex 6 -45 -3
      vertex 7 -13 -3
    endloop
  endfacet
  facet normal 0 0 -1
    outer loop
      vertex 9 -45 -3
      vertex 8 -45 -3
      vertex 9 -13 -3
    endloop
  endfacet
  facet normal 0 0 -1
    outer loop
      vertex 11 -45 -3
      vertex 10 -45 -3
      vertex 11 -13 -3
    endloop
  endfacet
  facet normal 0 0 -1
    outer loop
      vertex 13 -45 -3
      vertex 12 -45 -3
      vertex 13 -13 -3
    endloop
  endfacet
  facet normal 0 0 -1
    outer loop
      vertex 15 -45 -3
      vertex 14 -45 -3
      vertex 15 -13 -3
    endloop
  endfacet
  facet normal 0 0 -1
    outer loop
      vertex 17 -45 -3
      vertex 16 -45 -3
      vertex 17 -13 -3
    endloop
  endfacet
  facet normal 0 0 -1
    outer loop
      vertex 19 -45 -3
      vertex 18 -45 -3
      vertex 19 -13 -3
    endloop
  endfacet
  facet normal 0 1 0
    outer loop
      vertex -20 2 -3
      vertex -20 2 3
      vertex -15 2 -3
    endloop
  endfacet
  facet normal 0 1 0
    outer loop
      vertex 15 2 3
      vertex -20 2 3
      vertex 20 2 3
    endloop
  endfacet
  facet normal 0 1 0
    outer loop
      vertex 15 2 -3
      vertex 20 2 3
      vertex 20 2 -3
    endloop
  endfacet
  facet normal 0 1 0
    outer loop
      vertex -15 2 3
      vertex -20 2 3
      vertex 15 2 3
    endloop
  endfacet
  facet normal 0 1 0
    outer loop
      vertex -15 2 -3
      vertex -20 2 3
      vertex -15 2 3
    endloop
  endfacet
  facet normal 0 1 0
    outer loop
      vertex 15 2 3
      vertex 20 2 3
      vertex 15 2 -3
    endloop
  endfacet
  facet normal 0 0 1
    outer loop
      vertex -20 2 3
      vertex -20 -45 3
      vertex -19 -45 3
    endloop
  endfacet
  facet normal 0 0 1
    outer loop
      vertex -18 -13 3
      vertex -20 2 3
      vertex -19 -13 3
    endloop
  endfacet
  facet normal 0 0 1
    outer loop
      vertex -19 -13 3
      vertex -20 2 3
      vertex -19 -45 3
    endloop
  endfacet
  facet normal 0 0 1
    outer loop
      vertex -17 -13 3
      vertex -20 2 3
      vertex -18 -13 3
    endloop
  endfacet
  facet normal 0 0 1
    outer loop
      vertex -17 -45 3
      vertex -18 -13 3
      vertex -18 -45 3
    endloop
  endfacet
  facet normal 0 0 1
    outer loop
      vertex -17 -13 3
      vertex -18 -13 3
      vertex -17 -45 3
    endloop
  endfacet
  facet normal 0 0 1
    outer loop
      vertex -16 -13 3
      vertex -20 2 3
      vertex -17 -13 3
    endloop
  endfacet
  facet normal 0 0 1
    outer loop
      vertex -15 -13 3
      vertex -20 2 3
      vertex -16 -13 3
    endloop
  endfacet
  facet normal 0 0 1
    outer loop
      vertex -15 -45 3
      vertex -16 -13 3
      vertex -16 -45 3
    endloop
  endfacet
  facet normal 0 0 1
    outer loop
      vertex -15 -13 3
      vertex -16 -13 3
      vertex -15 -45 3
    endloop
  endfacet
  facet normal 0 0 1
    outer loop
      vertex -14 -13 3
      vertex -20 2 3
      vertex -15 -13 3
    endloop
  endfacet
  facet normal 0 0 1
    outer loop
      vertex -13 -13 3
      vertex -20 2 3
      vertex -14 -13 3
    endloop
  endfacet
  facet normal 0 0 1
    outer loop
      vertex -13 -45 3
      vertex -14 -13 3
      vertex -14 -45 3
    endloop
  endfacet
  facet normal 0 0 1
    outer loop
      vertex -13 -13 3
      vertex -14 -13 3
      vertex -13 -45 3
    endloop
  endfacet
  facet normal 0 0 1
    outer loop
      vertex -12 -13 3
      vertex -20 2 3
      vertex -13 -13 3
    endloop
  endfacet
  facet normal 0 0 1
    outer loop
      vertex -11 -13 3
      vertex -20 2 3
      vertex -12 -13 3
    endloop
  endfacet
  facet normal 0 0 1
    outer loop
      vertex -11 -45 3
      vertex -12 -13 3
      vertex -12 -45 3
    endloop
  endfacet
  facet normal 0 0 1
    outer loop
      vertex -11 -13 3
      vertex -12 -13 3
      vertex -11 -45 3
    endloop
  endfacet
  facet normal 0 0 1
    outer loop
      vertex -10 -13 3
      vertex -20 2 3
      vertex -11 -13 3
    endloop
  endfacet
  facet normal 0 0 1
    outer loop
      vertex -9 -13 3
      vertex -20 2 3
      vertex -10 -13 3
    endloop
  endfacet
  facet normal 0 0 1
    outer loop
      vertex -9 -45 3
      vertex -10 -13 3
      vertex -10 -45 3
    endloop
  endfacet
  facet normal 0 0 1
    outer loop
      vertex -9 -13 3
      vertex -10 -13 3
      vertex -9 -45 3
    endloop
  endfacet
  facet normal 0 0 1
    outer loop
      vertex -8 -13 3
      vertex -20 2 3
      vertex -9 -13 3
    endloop
  endfacet
  facet normal 0 0 1
    outer loop
      vertex -7 -13 3
      vertex -20 2 3
      vertex -8 -13 3
    endloop
  endfacet
  facet normal 0 0 1
    outer loop
      vertex -7 -45 3
      vertex -8 -13 3
      vertex -8 -45 3
    endloop
  endfacet
  facet normal 0 0 1
    outer loop
      vertex -7 -13 3
      vertex -8 -13 3
      vertex -7 -45 3
    endloop
  endfacet
  facet normal 0 0 1
    outer loop
      vertex -6 -13 3
      vertex -20 2 3
      vertex -7 -13 3
    endloop
  endfacet
  facet normal 0 0 1
    outer loop
      vertex -5 -13 3
      vertex -20 2 3
      vertex -6 -13 3
    endloop
  endfacet
  facet normal 0 0 1
    outer loop
      vertex -5 -45 3
      vertex -6 -13 3
      vertex -6 -45 3
    endloop
  endfacet
  facet normal 0 0 1
    outer loop
      vertex -5 -13 3
      vertex -6 -13 3
      vertex -5 -45 3
    endloop
  endfacet
  facet normal 0 0 1
    outer loop
      vertex -4 -13 3
      vertex -20 2 3
      vertex -5 -13 3
    endloop
  endfacet
  facet normal 0 0 1
    outer loop
      vertex -3 -13 3
      vertex -20 2 3
      vertex -4 -13 3
    endloop
  endfacet
  facet normal 0 0 1
    outer loop
      vertex -3 -45 3
      vertex -4 -13 3
      vertex -4 -45 3
    endloop
  endfacet
  facet normal 0 0 1
    outer loop
      vertex -3 -13 3
      vertex -4 -13 3
      vertex -3 -45 3
    endloop
  endfacet
  facet normal 0 0 1
    outer loop
      vertex -2 -13 3
      vertex -20 2 3
      vertex -3 -13 3
    endloop
  endfacet
  facet normal 0 0 1
    outer loop
      vertex -1 -13 3
      vertex -20 2 3
      vertex -2 -13 3
    endloop
  endfacet
  facet normal 0 0 1
    outer loop
      vertex -1 -45 3
      vertex -2 -13 3
      vertex -2 -45 3
    endloop
  endfacet
  facet normal 0 0 1
    outer loop
      vertex -1 -13 3
      vertex -2 -13 3
      vertex -1 -45 3
    endloop
  endfacet
  facet normal 0 0 1
    outer loop
      vertex 0 -13 3
      vertex -20 2 3
      vertex -1 -13 3
    endloop
  endfacet
  facet normal 0 0 1
    outer loop
      vertex 1 -13 3
      vertex -20 2 3
      vertex 0 -13 3
    endloop
  endfacet
  facet normal 0 0 1
    outer loop
      vertex 1 -45 3
      vertex 0 -13 3
      vertex 0 -45 3
    endloop
  endfacet
  facet normal 0 0 1
    outer loop
      vertex 1 -13 3
      vertex 0 -13 3
      vertex 1 -45 3
    endloop
  endfacet
  facet normal 0 0 1
    outer loop
      vertex 2 -13 3
      vertex -20 2 3
      vertex 1 -13 3
    endloop
  endfacet
  facet normal 0 0 1
    outer loop
      vertex 3 -13 3
      vertex -20 2 3
      vertex 2 -13 3
    endloop
  endfacet
  facet normal 0 0 1
    outer loop
      vertex 3 -45 3
      vertex 2 -13 3
      vertex 2 -45 3
    endloop
  endfacet
  facet normal 0 0 1
    outer loop
      vertex 3 -13 3
      vertex 2 -13 3
      vertex 3 -45 3
    endloop
  endfacet
  facet normal 0 0 1
    outer loop
      vertex 4 -13 3
      vertex -20 2 3
      vertex 3 -13 3
    endloop
  endfacet
  facet normal 0 0 1
    outer loop
      vertex 5 -13 3
      vertex -20 2 3
      vertex 4 -13 3
    endloop
  endfacet
  facet normal 0 0 1
    outer loop
      vertex 5 -45 3
      vertex 4 -13 3
      vertex 4 -45 3
    endloop
  endfacet
  facet normal 0 0 1
    outer loop
      vertex 5 -13 3
      vertex 4 -13 3
      vertex 5 -45 3
    endloop
  endfacet
  facet normal 0 0 1
    outer loop
      vertex 6 -13 3
      vertex -20 2 3
      vertex 5 -13 3
    endloop
  endfacet
  facet normal 0 0 1
    outer loop
      vertex 7 -13 3
      vertex -20 2 3
      vertex 6 -13 3
    endloop
  endfacet
  facet normal 0 0 1
    outer loop
      vertex 7 -45 3
      vertex 6 -13 3
      vertex 6 -45 3
    endloop
  endfacet
  facet normal 0 0 1
    outer loop
      vertex 7 -13 3
      vertex 6 -13 3
      vertex 7 -45 3
    endloop
  endfacet
  facet normal 0 0 1
    outer loop
      vertex 8 -13 3
      vertex -20 2 3
      vertex 7 -13 3
    endloop
  endfacet
  facet normal 0 0 1
    outer loop
      vertex 9 -13 3
      vertex -20 2 3
      vertex 8 -13 3
    endloop
  endfacet
  facet normal 0 0 1
    outer loop
      vertex 9 -45 3
      vertex 8 -13 3
      vertex 8 -45 3
    endloop
  endfacet
  facet normal 0 0 1
    outer loop
      vertex 9 -13 3
      vertex 8 -13 3
      vertex 9 -45 3
    endloop
  endfacet
  facet normal 0 0 1
    outer loop
      vertex 10 -13 3
      vertex -20 2 3
      vertex 9 -13 3
    endloop
  endfacet
  facet normal 0 0 1
    outer loop
      vertex 11 -13 3
      vertex -20 2 3
      vertex 10 -13 3
    endloop
  endfacet
  facet normal 0 0 1
    outer loop
      vertex 11 -45 3
      vertex 10 -13 3
      vertex 10 -45 3
    endloop
  endfacet
  facet normal 0 0 1
    outer loop
      vertex 11 -13 3
      vertex 10 -13 3
      vertex 11 -45 3
    endloop
  endfacet
  facet normal 0 0 1
    outer loop
      vertex 12 -13 3
      vertex -20 2 3
      vertex 11 -13 3
    endloop
  endfacet
  facet normal 0 0 1
    outer loop
      vertex 13 -13 3
      vertex -20 2 3
      vertex 12 -13 3
    endloop
  endfacet
  facet normal 0 0 1
    outer loop
      vertex 13 -45 3
      vertex 12 -13 3
      vertex 12 -45 3
    endloop
  endfacet
  facet normal 0 0 1
    outer loop
      vertex 13 -13 3
      vertex 12 -13 3
      vertex 13 -45 3
    endloop
  endfacet
  facet normal 0 0 1
    outer loop
      vertex 14 -13 3
      vertex -20 2 3
      vertex 13 -13 3
    endloop
  endfacet
  facet normal 0 0 1
    outer loop
      vertex 15 -13 3
      vertex -20 2 3
      vertex 14 -13 3
    endloop
  endfacet
  facet normal 0 0 1
    outer loop
      vertex 15 -45 3
      vertex 14 -13 3
      vertex 14 -45 3
    endloop
  endfacet
  facet normal 0 0 1
    outer loop
      vertex 15 -13 3
      vertex 14 -13 3
      vertex 15 -45 3
    endloop
  endfacet
  facet normal 0 0 1
    outer loop
      vertex 16 -13 3
      vertex -20 2 3
      vertex 15 -13 3
    endloop
  endfacet
  facet normal 0 0 1
    outer loop
      vertex 17 -13 3
      vertex -20 2 3
      vertex 16 -13 3
    endloop
  endfacet
  facet normal 0 0 1
    outer loop
      vertex 17 -45 3
      vertex 16 -13 3
      vertex 16 -45 3
    endloop
  endfacet
  facet normal 0 0 1
    outer loop
      vertex 17 -13 3
      vertex 16 -13 3
      vertex 17 -45 3
    endloop
  endfacet
  facet normal 0 0 1
    outer loop
      vertex 18 -13 3
      vertex -20 2 3
      vertex 17 -13 3
    endloop
  endfacet
  facet normal 0 0 1
    outer loop
      vertex 19 -13 3
      vertex -20 2 3
      vertex 18 -13 3
    endloop
  endfacet
  facet normal 0 0 1
    outer loop
      vertex 19 -45 3
      vertex 18 -13 3
      vertex 18 -45 3
    endloop
  endfacet
  facet normal 0 0 1
    outer loop
      vertex 19 -13 3
      vertex 18 -13 3
      vertex 19 -45 3
    endloop
  endfacet
  facet normal 0 0 1
    outer loop
      vertex 20 -13 3
      vertex -20 2 3
      vertex 19 -13 3
    endloop
  endfacet
  facet normal 0 0 1
    outer loop
      vertex 20 2 3
      vertex -20 2 3
      vertex 20 -13 3
    endloop
  endfacet
  facet normal 1 0 0
    outer loop
      vertex -19 -45 3
      vertex -19 -45 -3
      vertex -19 -13 -3
    endloop
  endfacet
  facet normal 1 0 0
    outer loop
      vertex -19 -13 3
      vertex -19 -45 3
      vertex -19 -13 -3
    endloop
  endfacet
  facet normal 0 -1 0
    outer loop
      vertex -19 -13 3
      vertex -19 -13 -3
      vertex -18 -13 -3
    endloop
  endfacet
  facet normal 0 -1 0
    outer loop
      vertex -18 -13 3
      vertex -19 -13 3
      vertex -18 -13 -3
    endloop
  endfacet
  facet normal -1 0 0
    outer loop
      vertex -18 -45 -3
      vertex -18 -45 3
      vertex -18 -13 -3
    endloop
  endfacet
  facet normal -1 0 0
    outer loop
      vertex -18 -13 -3
      vertex -18 -45 3
      vertex -18 -13 3
    endloop
  endfacet
  facet normal 0 -1 0
    outer loop
      vertex -18 -45 3
      vertex -18 -45 -3
      vertex -17 -45 -3
    endloop
  endfacet
  facet normal 0 -1 0
    outer loop
      vertex -17 -45 3
      vertex -18 -45 3
      vertex -17 -45 -3
    endloop
  endfacet
  facet normal 1 0 0
    outer loop
      vertex -17 -45 3
      vertex -17 -45 -3
      vertex -17 -13 -3
    endloop
  endfacet
  facet normal 1 0 0
    outer loop
      vertex -17 -13 3
      vertex -17 -45 3
      vertex -17 -13 -3
    endloop
  endfacet
  facet normal 0 -1 0
    outer loop
      vertex -17 -13 3
      vertex -17 -13 -3
      vertex -16 -13 -3
    endloop
  endfacet
  facet normal 0 -1 0
    outer loop
      vertex -16 -13 3
      vertex -17 -13 3
      vertex -16 -13 -3
    endloop
  endfacet
  facet normal -1 0 0
    outer loop
      vertex -16 -45 -3
      vertex -16 -45 3
      vertex -16 -13 -3
    endloop
  endfacet
  facet normal -1 0 0
    outer loop
      vertex -16 -13 -3
      vertex -16 -45 3
      vertex -16 -13 3
    endloop
  endfacet
  facet normal 0 -1 0
    outer loop
      vertex -16 -45 3
      vertex -16 -45 -3
      vertex -15 -45 -3
    endloop
  endfacet
  facet normal 0 -1 0
    outer loop
      vertex -15 -45 3
      vertex -16 -45 3
      vertex -15 -45 -3
    endloop
  endfacet
  facet normal 1 0 0
    outer loop
      vertex -15 -45 3
      vertex -15 -45 -3
      vertex -15 -13 -3
    endloop
  endfacet
  facet normal 1 0 0
    outer loop
      vertex -15 -13 3
      vertex -15 -45 3
      vertex -15 -13 -3
    endloop
  endfacet
  facet normal 0 -1 0
    outer loop
      vertex -15 -13 3
      vertex -15 -13 -3
      vertex -14 -13 -3
    endloop
  endfacet
  facet normal 0 -1 0
    outer loop
      vertex -14 -13 3
      vertex -15 -13 3
      vertex -14 -13 -3
    endloop
  endfacet
  facet normal -1 0 0
    outer loop
      vertex -14 -45 -3
      vertex -14 -45 3
      vertex -14 -13 -3
    endloop
  endfacet
  facet normal -1 0 0
    outer loop
      vertex -14 -13 -3
      vertex -14 -45 3
      vertex -14 -13 3
    endloop
  endfacet
  facet normal 0 -1 0
    outer loop
      vertex -14 -45 3
      vertex -14 -45 -3
      vertex -13 -45 -3
    endloop
  endfacet
  facet normal 0 -1 0
    outer loop
      vertex -13 -45 3
      vertex -14 -45 3
      vertex -13 -45 -3
    endloop
  endfacet
  facet normal 1 0 0
    outer loop
      vertex -13 -45 3
      vertex -13 -45 -3
      vertex -13 -13 -3
    endloop
  endfacet
  facet normal 1 0 0
    outer loop
      vertex -13 -13 3
      vertex -13 -45 3
      vertex -13 -13 -3
    endloop
  endfacet
  facet normal 0 -1 0
    outer loop
      vertex -13 -13 3
      vertex -13 -13 -3
      vertex -12 -13 -3
    endloop
  endfacet
  facet normal 0 -1 0
    outer loop
      vertex -12 -13 3
      vertex -13 -13 3
      vertex -12 -13 -3
    endloop
  endfacet
  facet normal -1 0 0
    outer loop
      vertex -12 -45 -3
      vertex -12 -45 3
      vertex -12 -13 -3
    endloop
  endfacet
  facet normal -1 0 0
    outer loop
      vertex -12 -13 -3
      vertex -12 -45 3
      vertex -12 -13 3
    endloop
  endfacet
  facet normal 0 -1 0
    outer loop
      vertex -12 -45 3
      vertex -12 -45 -3
      vertex -11 -45 -3
    endloop
  endfacet
  facet normal 0 -1 0
    outer loop
      vertex -11 -45 3
      vertex -12 -45 3
      vertex -11 -45 -3
    endloop
  endfacet
  facet normal 1 0 0
    outer loop
      vertex -11 -45 3
      vertex -11 -45 -3
      vertex -11 -13 -3
    endloop
  endfacet
  facet normal 1 0 0
    outer loop
      vertex -11 -13 3
      vertex -11 -45 3
      vertex -11 -13 -3
    endloop
  endfacet
  facet normal 0 -1 0
    outer loop
      vertex -11 -13 3
      vertex -11 -13 -3
      vertex -10 -13 -3
    endloop
  endfacet
  facet normal 0 -1 0
    outer loop
      vertex -10 -13 3
      vertex -11 -13 3
      vertex -10 -13 -3
    endloop
  endfacet
  facet normal -1 0 0
    outer loop
      vertex -10 -45 -3
      vertex -10 -45 3
      vertex -10 -13 -3
    endloop
  endfacet
  facet normal -1 0 0
    outer loop
      vertex -10 -13 -3
      vertex -10 -45 3
      vertex -10 -13 3
    endloop
  endfacet
  facet normal 0 -1 0
    outer loop
      vertex -10 -45 3
      vertex -10 -45 -3
      vertex -9 -45 -3
    endloop
  endfacet
  facet normal 0 -1 0
    outer loop
      vertex -9 -45 3
      vertex -10 -45 3
      vertex -9 -45 -3
    endloop
  endfacet
  facet normal 1 0 0
    outer loop
      vertex -9 -45 3
      vertex -9 -45 -3
      vertex -9 -13 -3
    endloop
  endfacet
  facet normal 1 0 0
    outer loop
      vertex -9 -13 3
      vertex -9 -45 3
      vertex -9 -13 -3
    endloop
  endfacet
  facet normal 0 -1 0
    outer loop
      vertex -9 -13 3
      vertex -9 -13 -3
      vertex -8 -13 -3
    endloop
  endfacet
  facet normal 0 -1 0
    outer loop
      vertex -8 -13 3
      vertex -9 -13 3
      vertex -8 -13 -3
    endloop
  endfacet
  facet normal -1 0 0
    outer loop
      vertex -8 -45 -3
      vertex -8 -45 3
      vertex -8 -13 -3
    endloop
  endfacet
  facet normal -1 0 0
    outer loop
      vertex -8 -13 -3
      vertex -8 -45 3
      vertex -8 -13 3
    endloop
  endfacet
  facet normal 0 -1 0
    outer loop
      vertex -8 -45 3
      vertex -8 -45 -3
      vertex -7 -45 -3
    endloop
  endfacet
  facet normal 0 -1 0
    outer loop
      vertex -7 -45 3
      vertex -8 -45 3
      vertex -7 -45 -3
    endloop
  endfacet
  facet normal 1 0 0
    outer loop
      vertex -7 -45 3
      vertex -7 -45 -3
      vertex -7 -13 -3
    endloop
  endfacet
  facet normal 1 0 0
    outer loop
      vertex -7 -13 3
      vertex -7 -45 3
      vertex -7 -13 -3
    endloop
  endfacet
  facet normal 0 -1 0
    outer loop
      vertex -7 -13 3
      vertex -7 -13 -3
      vertex -6 -13 -3
    endloop
  endfacet
  facet normal 0 -1 0
    outer loop
      vertex -6 -13 3
      vertex -7 -13 3
      vertex -6 -13 -3
    endloop
  endfacet
  facet normal -1 0 0
    outer loop
      vertex -6 -45 -3
      vertex -6 -45 3
      vertex -6 -13 -3
    endloop
  endfacet
  facet normal -1 0 0
    outer loop
      vertex -6 -13 -3
      vertex -6 -45 3
      vertex -6 -13 3
    endloop
  endfacet
  facet normal 0 -1 0
    outer loop
      vertex -6 -45 3
      vertex -6 -45 -3
      vertex -5 -45 -3
    endloop
  endfacet
  facet normal 0 -1 0
    outer loop
      vertex -5 -45 3
      vertex -6 -45 3
      vertex -5 -45 -3
    endloop
  endfacet
  facet normal 1 0 0
    outer loop
      vertex -5 -45 3
      vertex -5 -45 -3
      vertex -5 -13 -3
    endloop
  endfacet
  facet normal 1 0 0
    outer loop
      vertex -5 -13 3
      vertex -5 -45 3
      vertex -5 -13 -3
    endloop
  endfacet
  facet normal 0 -1 0
    outer loop
      vertex -5 -13 3
      vertex -5 -13 -3
      vertex -4 -13 -3
    endloop
  endfacet
  facet normal 0 -1 0
    outer loop
      vertex -4 -13 3
      vertex -5 -13 3
      vertex -4 -13 -3
    endloop
  endfacet
  facet normal -1 0 0
    outer loop
      vertex -4 -45 -3
      vertex -4 -45 3
      vertex -4 -13 -3
    endloop
  endfacet
  facet normal -1 0 0
    outer loop
      vertex -4 -13 -3
      vertex -4 -45 3
      vertex -4 -13 3
    endloop
  endfacet
  facet normal 0 -1 0
    outer loop
      vertex -4 -45 3
      vertex -4 -45 -3
      vertex -3 -45 -3
    endloop
  endfacet
  facet normal 0 -1 0
    outer loop
      vertex -3 -45 3
      vertex -4 -45 3
      vertex -3 -45 -3
    endloop
  endfacet
  facet normal 1 0 0
    outer loop
      vertex -3 -45 3
      vertex -3 -45 -3
      vertex -3 -13 -3
    endloop
  endfacet
  facet normal 1 0 0
    outer loop
      vertex -3 -13 3
      vertex -3 -45 3
      vertex -3 -13 -3
    endloop
  endfacet
  facet normal 0 -1 0
    outer loop
      vertex -3 -13 3
      vertex -3 -13 -3
      vertex -2 -13 -3
    endloop
  endfacet
  facet normal 0 -1 0
    outer loop
      vertex -2 -13 3
      vertex -3 -13 3
      vertex -2 -13 -3
    endloop
  endfacet
  facet normal -1 0 0
    outer loop
      vertex -2 -45 -3
      vertex -2 -45 3
      vertex -2 -13 -3
    endloop
  endfacet
  facet normal -1 0 0
    outer loop
      vertex -2 -13 -3
      vertex -2 -45 3
      vertex -2 -13 3
    endloop
  endfacet
  facet normal 0 -1 0
    outer loop
      vertex -2 -45 3
      vertex -2 -45 -3
      vertex -1 -45 -3
    endloop
  endfacet
  facet normal 0 -1 0
    outer loop
      vertex -1 -45 3
      vertex -2 -45 3
      vertex -1 -45 -3
    endloop
  endfacet
  facet normal 1 0 0
    outer loop
      vertex -1 -45 3
      vertex -1 -45 -3
      vertex -1 -13 -3
    endloop
  endfacet
  facet normal 1 0 0
    outer loop
      vertex -1 -13 3
      vertex -1 -45 3
      vertex -1 -13 -3
    endloop
  endfacet
  facet normal 0 -1 0
    outer loop
      vertex -1 -13 3
      vertex -1 -13 -3
      vertex 0 -13 -3
    endloop
  endfacet
  facet normal 0 -1 0
    outer loop
      vertex 0 -13 3
      vertex -1 -13 3
      vertex 0 -13 -3
    endloop
  endfacet
  facet normal -1 0 0
    outer loop
      vertex 0 -45 -3
      vertex 0 -45 3
      vertex 0 -13 -3
    endloop
  endfacet
  facet normal -1 0 0
    outer loop
      vertex 0 -13 -3
      vertex 0 -45 3
      vertex 0 -13 3
    endloop
  endfacet
  facet normal 0 -1 0
    outer loop
      vertex 0 -45 3
      vertex 0 -45 -3
      vertex 1 -45 -3
    endloop
  endfacet
  facet normal 0 -1 0
    outer loop
      vertex 1 -45 3
      vertex 0 -45 3
      vertex 1 -45 -3
    endloop
  endfacet
  facet normal 1 0 0
    outer loop
      vertex 1 -45 3
      vertex 1 -45 -3
      vertex 1 -13 -3
    endloop
  endfacet
  facet normal 1 0 0
    outer loop
      vertex 1 -13 3
      vertex 1 -45 3
      vertex 1 -13 -3
    endloop
  endfacet
  facet normal 0 -1 0
    outer loop
      vertex 1 -13 3
      vertex 1 -13 -3
      vertex 2 -13 -3
    endloop
  endfacet
  facet normal 0 -1 0
    outer loop
      vertex 2 -13 3
      vertex 1 -13 3
      vertex 2 -13 -3
    endloop
  endfacet
  facet normal -1 0 0
    outer loop
      vertex 2 -45 -3
      vertex 2 -45 3
      vertex 2 -13 -3
    endloop
  endfacet
  facet normal -1 0 0
    outer loop
      vertex 2 -13 -3
      vertex 2 -45 3
      vertex 2 -13 3
    endloop
  endfacet
  facet normal 0 -1 0
    outer loop
      vertex 2 -45 3
      vertex 2 -45 -3
      vertex 3 -45 -3
    endloop
  endfacet
  facet normal 0 -1 0
    outer loop
      vertex 3 -45 3
      vertex 2 -45 3
      vertex 3 -45 -3
    endloop
  endfacet
  facet normal 1 0 0
    outer loop
      vertex 3 -45 3
      vertex 3 -45 -3
      vertex 3 -13 -3
    endloop
  endfacet
  facet normal 1 0 0
    outer loop
      vertex 3 -13 3
      vertex 3 -45 3
      vertex 3 -13 -3
    endloop
  endfacet
  facet normal 0 -1 0
    outer loop
      vertex 3 -13 3
      vertex 3 -13 -3
      vertex 4 -13 -3
    endloop
  endfacet
  facet normal 0 -1 0
    outer loop
      vertex 4 -13 3
      vertex 3 -13 3
      vertex 4 -13 -3
    endloop
  endfacet
  facet normal -1 0 0
    outer loop
      vertex 4 -45 -3
      vertex 4 -45 3
      vertex 4 -13 -3
    endloop
  endfacet
  facet normal -1 0 0
    outer loop
      vertex 4 -13 -3
      vertex 4 -45 3
      vertex 4 -13 3
    endloop
  endfacet
  facet normal 0 -1 0
    outer loop
      vertex 4 -45 3
      vertex 4 -45 -3
      vertex 5 -45 -3
    endloop
  endfacet
  facet normal 0 -1 0
    outer loop
      vertex 5 -45 3
      vertex 4 -45 3
      vertex 5 -45 -3
    endloop
  endfacet
  facet normal 1 0 0
    outer loop
      vertex 5 -45 3
      vertex 5 -45 -3
      vertex 5 -13 -3
    endloop
  endfacet
  facet normal 1 0 0
    outer loop
      vertex 5 -13 3
      vertex 5 -45 3
      vertex 5 -13 -3
    endloop
  endfacet
  facet normal 0 -1 0
    outer loop
      vertex 5 -13 3
      vertex 5 -13 -3
      vertex 6 -13 -3
    endloop
  endfacet
  facet normal 0 -1 0
    outer loop
      vertex 6 -13 3
      vertex 5 -13 3
      vertex 6 -13 -3
    endloop
  endfacet
  facet normal -1 0 0
    outer loop
      vertex 6 -45 -3
      vertex 6 -45 3
      vertex 6 -13 -3
    endloop
  endfacet
  facet normal -1 0 0
    outer loop
      vertex 6 -13 -3
      vertex 6 -45 3
      vertex 6 -13 3
    endloop
  endfacet
  facet normal 0 -1 0
    outer loop
      vertex 6 -45 3
      vertex 6 -45 -3
      vertex 7 -45 -3
    endloop
  endfacet
  facet normal 0 -1 0
    outer loop
      vertex 7 -45 3
      vertex 6 -45 3
      vertex 7 -45 -3
    endloop
  endfacet
  facet normal 1 0 0
    outer loop
      vertex 7 -45 3
      vertex 7 -45 -3
      vertex 7 -13 -3
    endloop
  endfacet
  facet normal 1 0 0
    outer loop
      vertex 7 -13 3
      vertex 7 -45 3
      vertex 7 -13 -3
    endloop
  endfacet
  facet normal 0 -1 0
    outer loop
      vertex 7 -13 3
      vertex 7 -13 -3
      vertex 8 -13 -3
    endloop
  endfacet
  facet normal 0 -1 0
    outer loop
      vertex 8 -13 3
      vertex 7 -13 3
      vertex 8 -13 -3
    endloop
  endfacet
  facet normal -1 0 0
    outer loop
      vertex 8 -45 -3
      vertex 8 -45 3
      vertex 8 -13 -3
    endloop
  endfacet
  facet normal -1 0 0
    outer loop
      vertex 8 -13 -3
      vertex 8 -45 3
      vertex 8 -13 3
    endloop
  endfacet
  facet normal 0 -1 0
    outer loop
      vertex 8 -45 3
      vertex 8 -45 -3
      vertex 9 -45 -3
    endloop
  endfacet
  facet normal 0 -1 0
    outer loop
      vertex 9 -45 3
      vertex 8 -45 3
      vertex 9 -45 -3
    endloop
  endfacet
  facet normal 1 0 0
    outer loop
      vertex 9 -45 3
      vertex 9 -45 -3
      vertex 9 -13 -3
    endloop
  endfacet
  facet normal 1 0 0
    outer loop
      vertex 9 -13 3
      vertex 9 -45 3
      vertex 9 -13 -3
    endloop
  endfacet
  facet normal 0 -1 0
    outer loop
      vertex 9 -13 3
      vertex 9 -13 -3
      vertex 10 -13 -3
    endloop
  endfacet
  facet normal 0 -1 0
    outer loop
      vertex 10 -13 3
      vertex 9 -13 3
      vertex 10 -13 -3
    endloop
  endfacet
  facet normal -1 0 0
    outer loop
      vertex 10 -45 -3
      vertex 10 -45 3
      vertex 10 -13 -3
    endloop
  endfacet
  facet normal -1 0 0
    outer loop
      vertex 10 -13 -3
      vertex 10 -45 3
      vertex 10 -13 3
    endloop
  endfacet
  facet normal 0 -1 0
    outer loop
      vertex 10 -45 3
      vertex 10 -45 -3
      vertex 11 -45 -3
    endloop
  endfacet
  facet normal 0 -1 0
    outer loop
      vertex 11 -45 3
      vertex 10 -45 3
      vertex 11 -45 -3
    endloop
  endfacet
  facet normal 1 0 0
    outer loop
      vertex 11 -45 3
      vertex 11 -45 -3
      vertex 11 -13 -3
    endloop
  endfacet
  facet normal 1 0 0
    outer loop
      vertex 11 -13 3
      vertex 11 -45 3
      vertex 11 -13 -3
    endloop
  endfacet
  facet normal 0 -1 0
    outer loop
      vertex 11 -13 3
      vertex 11 -13 -3
      vertex 12 -13 -3
    endloop
  endfacet
  facet normal 0 -1 0
    outer loop
      vertex 12 -13 3
      vertex 11 -13 3
      vertex 12 -13 -3
    endloop
  endfacet
  facet normal -1 0 0
    outer loop
      vertex 12 -45 -3
      vertex 12 -45 3
      vertex 12 -13 -3
    endloop
  endfacet
  facet normal -1 0 0
    outer loop
      vertex 12 -13 -3
      vertex 12 -45 3
      vertex 12 -13 3
    endloop
  endfacet
  facet normal 0 -1 0
    outer loop
      vertex 12 -45 3
      vertex 12 -45 -3
      vertex 13 -45 -3
    endloop
  endfacet
  facet normal 0 -1 0
    outer loop
      vertex 13 -45 3
      vertex 12 -45 3
      vertex 13 -45 -3
    endloop
  endfacet
  facet normal 1 0 0
    outer loop
      vertex 13 -45 3
      vertex 13 -45 -3
      vertex 13 -13 -3
    endloop
  endfacet
  facet normal 1 0 0
    outer loop
      vertex 13 -13 3
      vertex 13 -45 3
      vertex 13 -13 -3
    endloop
  endfacet
  facet normal 0 -1 0
    outer loop
      vertex 13 -13 3
      vertex 13 -13 -3
      vertex 14 -13 -3
    endloop
  endfacet
  facet normal 0 -1 0
    outer loop
      vertex 14 -13 3
      vertex 13 -13 3
      vertex 14 -13 -3
    endloop
  endfacet
  facet normal -1 0 0
    outer loop
      vertex 14 -45 -3
      vertex 14 -45 3
      vertex 14 -13 -3
    endloop
  endfacet
  facet normal -1 0 0
    outer loop
      vertex 14 -13 -3
      vertex 14 -45 3
      vertex 14 -13 3
    endloop
  endfacet
  facet normal 0 -1 0
    outer loop
      vertex 14 -45 3
      vertex 14 -45 -3
      vertex 15 -45 -3
    endloop
  endfacet
  facet normal 0 -1 0
    outer loop
      vertex 15 -45 3
      vertex 14 -45 3
      vertex 15 -45 -3
    endloop
  endfacet
  facet normal 1 0 0
    outer loop
      vertex 15 -45 3
      vertex 15 -45 -3
      vertex 15 -13 -3
    endloop
  endfacet
  facet normal 1 0 0
    outer loop
      vertex 15 -13 3
      vertex 15 -45 3
      vertex 15 -13 -3
    endloop
  endfacet
  facet normal 0 -1 0
    outer loop
      vertex 15 -13 3
      vertex 15 -13 -3
      vertex 16 -13 -3
    endloop
  endfacet
  facet normal 0 -1 0
    outer loop
      vertex 16 -13 3
      vertex 15 -13 3
      vertex 16 -13 -3
    endloop
  endfacet
  facet normal -1 0 0
    outer loop
      vertex 16 -45 -3
      vertex 16 -45 3
      vertex 16 -13 -3
    endloop
  endfacet
  facet normal -1 0 0
    outer loop
      vertex 16 -13 -3
      vertex 16 -45 3
      vertex 16 -13 3
    endloop
  endfacet
  facet normal 0 -1 0
    outer loop
      vertex 16 -45 3
      vertex 16 -45 -3
      vertex 17 -45 -3
    endloop
  endfacet
  facet normal 0 -1 0
    outer loop
      vertex 17 -45 3
      vertex 16 -45 3
      vertex 17 -45 -3
    endloop
  endfacet
  facet normal 1 0 0
    outer loop
      vertex 17 -45 3
      vertex 17 -45 -3
      vertex 17 -13 -3
    endloop
  endfacet
  facet normal 1 0 0
    outer loop
      vertex 17 -13 3
      vertex 17 -45 3
      vertex 17 -13 -3
    endloop
  endfacet
  facet normal 0 -1 0
    outer loop
      vertex 17 -13 3
      vertex 17 -13 -3
      vertex 18 -13 -3
    endloop
  endfacet
  facet normal 0 -1 0
    outer loop
      vertex 18 -13 3
      vertex 17 -13 3
      vertex 18 -13 -3
    endloop
  endfacet
  facet normal -1 0 0
    outer loop
      vertex 18 -45 -3
      vertex 18 -45 3
      vertex 18 -13 -3
    endloop
  endfacet
  facet normal -1 0 0
    outer loop
      vertex 18 -13 -3
      vertex 18 -45 3
      vertex 18 -13 3
    endloop
  endfacet
  facet normal 0 -1 0
    outer loop
      vertex 18 -45 3
      vertex 18 -45 -3
      vertex 19 -45 -3
    endloop
  endfacet
  facet normal 0 -1 0
    outer loop
      vertex 19 -45 3
      vertex 18 -45 3
      vertex 19 -45 -3
    endloop
  endfacet
  facet normal 1 0 0
    outer loop
      vertex 19 -45 3
      vertex 19 -45 -3
      vertex 19 -13 -3
    endloop
  endfacet
  facet normal 1 0 0
    outer loop
      vertex 19 -13 3
      vertex 19 -45 3
      vertex 19 -13 -3
    endloop
  endfacet
  facet normal 0 -1 0
    outer loop
      vertex 19 -13 3
      vertex 19 -13 -3
      vertex 20 -13 -3
    endloop
  endfacet
  facet normal 0 -1 0
    outer loop
      vertex 20 -13 3
      vertex 19 -13 3
      vertex 20 -13 -3
    endloop
  endfacet
  facet normal 1 0 0
    outer loop
      vertex 20 -13 3
      vertex 20 -13 -3
      vertex 20 2 -3
    endloop
  endfacet
  facet normal 1 0 0
    outer loop
      vertex 20 2 3
      vertex 20 -13 3
      vertex 20 2 -3
    endloop
  endfacet
  facet normal 1 0 0
    outer loop
      vertex 15 2 3
      vertex 15 2 -3
      vertex 15 80 -3
    endloop
  endfacet
  facet normal 1 0 0
    outer loop
      vertex 15 80 3
      vertex 15 2 3
      vertex 15 80 -3
    endloop
  endfacet
  facet normal 0.999507 0.0314107 0
    outer loop
      vertex 15 80 -3
      vertex 14.9704 80.9419 -3
      vertex 14.9704 80.9419 3
    endloop
  endfacet
  facet normal 0.999507 0.0314107 0
    outer loop
      vertex 15 80 3
      vertex 15 80 -3
      vertex 14.9704 80.9419 3
    endloop
  endfacet
  facet normal 0.995562 0.0941079 0
    outer loop
      vertex 14.9704 80.9419 -3
      vertex 14.8817 81.88 -3
      vertex 14.8817 81.88 3
    endloop
  endfacet
  facet normal 0.995562 0.0941079 0
    outer loop
      vertex 14.9704 80.9419 3
      vertex 14.9704 80.9419 -3
      vertex 14.8817 81.88 3
    endloop
  endfacet
  facet normal 0.987688 0.156435 0
    outer loop
      vertex 14.8817 81.88 -3
      vertex 14.7343 82.8107 -3
      vertex 14.7343 82.8107 3
    endloop
  endfacet
  facet normal 0.987688 0.156435 0
    outer loop
      vertex 14.8817 81.88 3
      vertex 14.8817 81.88 -3
      vertex 14.7343 82.8107 3
    endloop
  endfacet
  facet normal 0.975917 0.218144 0
    outer loop
      vertex 14.7343 82.8107 -3
      vertex 14.5287 83.7303 -3
      vertex 14.5287 83.7303 3
    endloop
  endfacet
  facet normal 0.975917 0.218144 0
    outer loop
      vertex 14.7343 82.8107 3
      vertex 14.7343 82.8107 -3
      vertex 14.5287 83.7303 3
    endloop
  endfacet
  facet normal 0.960294 0.27899 0
    outer loop
      vertex 14.5287 83.7303 -3
      vertex 14.2658 84.6353 -3
      vertex 14.2658 84.6353 3
    endloop
  endfacet
  facet normal 0.960294 0.27899 0
    outer loop
      vertex 14.5287 83.7303 3
      vertex 14.5287 83.7303 -3
      vertex 14.2658 84.6353 3
    endloop
  endfacet
  facet normal 0.940881 0.338739 0
    outer loop
      vertex 14.2658 84.6353 -3
      vertex 13.9466 85.5219 -3
      vertex 13.9466 85.5219 3
    endloop
  endfacet
  facet normal 0.940881 0.338739 0
    outer loop
      vertex 14.2658 84.6353 3
      vertex 14.2658 84.6353 -3
      vertex 13.9466 85.5219 3
    endloop
  endfacet
  facet normal 0.917755 0.397147 0
    outer loop
      vertex 13.9466 85.5219 -3
      vertex 13.5724 86.3867 -3
      vertex 13.5724 86.3867 3
    endloop
  endfacet
  facet normal 0.917755 0.397147 0
    outer loop
      vertex 13.9466 85.5219 3
      vertex 13.9466 85.5219 -3
      vertex 13.5724 86.3867 3
    endloop
  endfacet
  facet normal 0.891006 0.453991 0
    outer loop
      vertex 13.5724 86.3867 -3
      vertex 13.1446 87.2263 -3
      vertex 13.1446 87.2263 3
    endloop
  endfacet
  facet normal 0.891006 0.453991 0
    outer loop
      vertex 13.5724 86.3867 3
      vertex 13.5724 86.3867 -3
      vertex 13.1446 87.2263 3
    endloop
  endfacet
  facet normal 0.860742 0.509041 0
    outer loop
      vertex 13.1446 87.2263 -3
      vertex 12.6649 88.0374 -3
      vertex 12.6649 88.0374 3
    endloop
  endfacet
  facet normal 0.860742 0.509041 0
    outer loop
      vertex 13.1446 87.2263 3
      vertex 13.1446 87.2263 -3
      vertex 12.6649 88.0374 3
    endloop
  endfacet
  facet normal 0.827081 0.562083 0
    outer loop
      vertex 12.6649 88.0374 -3
      vertex 12.1353 88.8168 -3
      vertex 12.1353 88.8168 3
    endloop
  endfacet
  facet normal 0.827081 0.562083 0
    outer loop
      vertex 12.6649 88.0374 3
      vertex 12.6649 88.0374 -3
      vertex 12.1353 88.8168 3
    endloop
  endfacet
  facet normal 0.790155 0.612907 0
    outer loop
      vertex 12.1353 88.8168 -3
      vertex 11.5577 89.5614 -3
      vertex 11.5577 89.5614 3
    endloop
  endfacet
  facet normal 0.790155 0.612907 0
    outer loop
      vertex 12.1353 88.8168 3
      vertex 12.1353 88.8168 -3
      vertex 11.5577 89.5614 3
    endloop
  endfacet
  facet normal 0.750111 0.661312 0
    outer loop
      vertex 11.5577 89.5614 -3
      vertex 10.9345 90.2682 -3
      vertex 10.9345 90.2682 3
    endloop
  endfacet
  facet normal 0.750111 0.661312 0
    outer loop
      vertex 11.5577 89.5614 3
      vertex 11.5577 89.5614 -3
      vertex 10.9345 90.2682 3
    endloop
  endfacet
  facet normal 0.707107 0.707107 0
    outer loop
      vertex 10.2682 90.9345 -3
      vertex 10.2682 90.9345 3
      vertex 10.9345 90.2682 -3
    endloop
  endfacet
  facet normal 0.707107 0.707107 0
    outer loop
      vertex 10.9345 90.2682 -3
      vertex 10.2682 90.9345 3
      vertex 10.9345 90.2682 3
    endloop
  endfacet
  facet normal 0.661312 0.750111 0
    outer loop
      vertex 9.56136 91.5577 -3
      vertex 9.56136 91.5577 3
      vertex 10.2682 90.9345 -3
    endloop
  endfacet
  facet normal 0.661312 0.750111 0
    outer loop
      vertex 10.2682 90.9345 -3
      vertex 9.56136 91.5577 3
      vertex 10.2682 90.9345 3
    endloop
  endfacet
  facet normal 0.612907 0.790155 0
    outer loop
      vertex 8.81678 92.1353 -3
      vertex 8.81678 92.1353 3
      vertex 9.56136 91.5577 -3
    endloop
  endfacet
  facet normal 0.612907 0.790155 0
    outer loop
      vertex 9.56136 91.5577 -3
      vertex 8.81678 92.1353 3
      vertex 9.56136 91.5577 3
    endloop
  endfacet
  facet normal 0.562083 0.827081 0
    outer loop
      vertex 8.0374 92.6649 -3
      vertex 8.0374 92.6649 3
      vertex 8.81678 92.1353 -3
    endloop
  endfacet
  facet normal 0.562083 0.827081 0
    outer loop
      vertex 8.81678 92.1353 -3
      vertex 8.0374 92.6649 3
      vertex 8.81678 92.1353 3
    endloop
  endfacet
  facet normal 0.509041 0.860742 0
    outer loop
      vertex 7.2263 93.1446 -3
      vertex 7.2263 93.1446 3
      vertex 8.0374 92.6649 -3
    endloop
  endfacet
  facet normal 0.509041 0.860742 0
    outer loop
      vertex 8.0374 92.6649 -3
      vertex 7.2263 93.1446 3
      vertex 8.0374 92.6649 3
    endloop
  endfacet
  facet normal 0.453991 0.891006 0
    outer loop
      vertex 6.38669 93.5724 -3
      vertex 6.38669 93.5724 3
      vertex 7.2263 93.1446 -3
    endloop
  endfacet
  facet normal 0.453991 0.891006 0
    outer loop
      vertex 7.2263 93.1446 -3
      vertex 6.38669 93.5724 3
      vertex 7.2263 93.1446 3
    endloop
  endfacet
  facet normal 0.397147 0.917755 0
    outer loop
      vertex 5.52187 93.9466 -3
      vertex 5.52187 93.9466 3
      vertex 6.38669 93.5724 -3
    endloop
  endfacet
  facet normal 0.397147 0.917755 0
    outer loop
      vertex 6.38669 93.5724 -3
      vertex 5.52187 93.9466 3
      vertex 6.38669 93.5724 3
    endloop
  endfacet
  facet normal 0.338739 0.940881 0
    outer loop
      vertex 4.63525 94.2658 -3
      vertex 4.63525 94.2658 3
      vertex 5.52187 93.9466 -3
    endloop
  endfacet
  facet normal 0.338739 0.940881 0
    outer loop
      vertex 5.52187 93.9466 -3
      vertex 4.63525 94.2658 3
      vertex 5.52187 93.9466 3
    endloop
  endfacet
  facet normal 0.27899 0.960294 0
    outer loop
      vertex 3.73035 94.5287 -3
      vertex 3.73035 94.5287 3
      vertex 4.63525 94.2658 -3
    endloop
  endfacet
  facet normal 0.27899 0.960294 0
    outer loop
      vertex 4.63525 94.2658 -3
      vertex 3.73035 94.5287 3
      vertex 4.63525 94.2658 3
    endloop
  endfacet
  facet normal 0.218144 0.975917 0
    outer loop
      vertex 2.81072 94.7343 -3
      vertex 2.81072 94.7343 3
      vertex 3.73035 94.5287 -3
    endloop
  endfacet
  facet normal 0.218144 0.975917 0
    outer loop
      vertex 3.73035 94.5287 -3
      vertex 2.81072 94.7343 3
      vertex 3.73035 94.5287 3
    endloop
  endfacet
  facet normal 0.156435 0.987688 0
    outer loop
      vertex 1.88 94.8817 -3
      vertex 1.88 94.8817 3
      vertex 2.81072 94.7343 -3
    endloop
  endfacet
  facet normal 0.156435 0.987688 0
    outer loop
      vertex 2.81072 94.7343 -3
      vertex 1.88 94.8817 3
      vertex 2.81072 94.7343 3
    endloop
  endfacet
  facet normal 0.0941079 0.995562 0
    outer loop
      vertex 0.941858 94.9704 -3
      vertex 0.941858 94.9704 3
      vertex 1.88 94.8817 -3
    endloop
  endfacet
  facet normal 0.0941079 0.995562 0
    outer loop
      vertex 1.88 94.8817 -3
      vertex 0.941858 94.9704 3
      vertex 1.88 94.8817 3
    endloop
  endfacet
  facet normal 0.0314107 0.999507 0
    outer loop
      vertex 0 95 -3
      vertex 0 95 3
      vertex 0.941858 94.9704 -3
    endloop
  endfacet
  facet normal 0.0314107 0.999507 0
    outer loop
      vertex 0.941858 94.9704 -3
      vertex 0 95 3
      vertex 0.941858 94.9704 3
    endloop
  endfacet
  facet normal -0.0314107 0.999507 0
    outer loop
      vertex -0.941858 94.9704 -3
      vertex -0.941858 94.9704 3
      vertex 0 95 -3
    endloop
  endfacet
  facet normal -0.0314107 0.999507 0
    outer loop
      vertex 0 95 -3
      vertex -0.941858 94.9704 3
      vertex 0 95 3
    endloop
  endfacet
  facet normal -0.0941079 0.995562 0
    outer loop
      vertex -1.88 94.8817 -3
      vertex -1.88 94.8817 3
      vertex -0.941858 94.9704 -3
    endloop
  endfacet
  facet normal -0.0941079 0.995562 0
    outer loop
      vertex -0.941858 94.9704 -3
      vertex -1.88 94.8817 3
      vertex -0.941858 94.9704 3
    endloop
  endfacet
  facet normal -0.156435 0.987688 0
    outer loop
      vertex -2.81072 94.7343 -3
      vertex -2.81072 94.7343 3
      vertex -1.88 94.8817 -3
    endloop
  endfacet
  facet normal -0.156435 0.987688 0
    outer loop
      vertex -1.88 94.8817 -3
      vertex -2.81072 94.7343 3
      vertex -1.88 94.8817 3
    endloop
  endfacet
  facet normal -0.218144 0.975917 0
    outer loop
      vertex -3.73035 94.5287 -3
      vertex -3.73035 94.5287 3
      vertex -2.81072 94.7343 -3
    endloop
  endfacet
  facet normal -0.218144 0.975917 0
    outer loop
      vertex -2.81072 94.7343 -3
      vertex -3.73035 94.5287 3
      vertex -2.81072 94.7343 3
    endloop
  endfacet
  facet normal -0.27899 0.960294 0
    outer loop
      vertex -4.63525 94.2658 -3
      vertex -4.63525 94.2658 3
      vertex -3.73035 94.5287 -3
    endloop
  endfacet
  facet normal -0.27899 0.960294 0
    outer loop
      vertex -3.73035 94.5287 -3
      vertex -4.63525 94.2658 3
      vertex -3.73035 94.5287 3
    endloop
  endfacet
  facet normal -0.338739 0.940881 0
    outer loop
      vertex -5.52187 93.9466 -3
      vertex -5.52187 93.9466 3
      vertex -4.63525 94.2658 -3
    endloop
  endfacet
  facet normal -0.338739 0.940881 0
    outer loop
      vertex -4.63525 94.2658 -3
      vertex -5.52187 93.9466 3
      vertex -4.63525 94.2658 3
    endloop
  endfacet
  facet normal -0.397147 0.917755 0
    outer loop
      vertex -6.38669 93.5724 -3
      vertex -6.38669 93.5724 3
      vertex -5.52187 93.9466 -3
    endloop
  endfacet
  facet normal -0.397147 0.917755 0
    outer loop
      vertex -5.52187 93.9466 -3
      vertex -6.38669 93.5724 3
      vertex -5.52187 93.9466 3
    endloop
  endfacet
  facet normal -0.453991 0.891006 0
    outer loop
      vertex -7.2263 93.1446 -3
      vertex -7.2263 93.1446 3
      vertex -6.38669 93.5724 -3
    endloop
  endfacet
  facet normal -0.453991 0.891006 0
    outer loop
      vertex -6.38669 93.5724 -3
      vertex -7.2263 93.1446 3
      vertex -6.38669 93.5724 3
    endloop
  endfacet
  facet normal -0.509041 0.860742 0
    outer loop
      vertex -8.0374 92.6649 -3
      vertex -8.0374 92.6649 3
      vertex -7.2263 93.1446 -3
    endloop
  endfacet
  facet normal -0.509041 0.860742 0
    outer loop
      vertex -7.2263 93.1446 -3
      vertex -8.0374 92.6649 3
      vertex -7.2263 93.1446 3
    endloop
  endfacet
  facet normal -0.562083 0.827081 0
    outer loop
      vertex -8.81678 92.1353 -3
      vertex -8.81678 92.1353 3
      vertex -8.0374 92.6649 -3
    endloop
  endfacet
  facet normal -0.562083 0.827081 0
    outer loop
      vertex -8.0374 92.6649 -3
      vertex -8.81678 92.1353 3
      vertex -8.0374 92.6649 3
    endloop
  endfacet
  facet normal -0.612907 0.790155 0
    outer loop
      vertex -9.56136 91.5577 -3
      vertex -9.56136 91.5577 3
      vertex -8.81678 92.1353 -3
    endloop
  endfacet
  facet normal -0.612907 0.790155 0
    outer loop
      vertex -8.81678 92.1353 -3
      vertex -9.56136 91.5577 3
      vertex -8.81678 92.1353 3
    endloop
  endfacet
  facet normal -0.661312 0.750111 0
    outer loop
      vertex -10.2682 90.9345 -3
      vertex -10.2682 90.9345 3
      vertex -9.56136 91.5577 -3
    endloop
  endfacet
  facet normal -0.661312 0.750111 0
    outer loop
      vertex -9.56136 91.5577 -3
      vertex -10.2682 90.9345 3
      vertex -9.56136 91.5577 3
    endloop
  endfacet
  facet normal -0.707107 0.707107 0
    outer loop
      vertex -10.9345 90.2682 -3
      vertex -10.9345 90.2682 3
      vertex -10.2682 90.9345 -3
    endloop
  endfacet
  facet normal -0.707107 0.707107 0
    outer loop
      vertex -10.2682 90.9345 -3
      vertex -10.9345 90.2682 3
      vertex -10.2682 90.9345 3
    endloop
  endfacet
  facet normal -0.750111 0.661312 0
    outer loop
      vertex -11.5577 89.5614 -3
      vertex -11.5577 89.5614 3
      vertex -10.9345 90.2682 -3
    endloop
  endfacet
  facet normal -0.750111 0.661312 0
    outer loop
      vertex -10.9345 90.2682 -3
      vertex -11.5577 89.5614 3
      vertex -10.9345 90.2682 3
    endloop
  endfacet
  facet normal -0.790155 0.612907 0
    outer loop
      vertex -12.1353 88.8168 -3
      vertex -12.1353 88.8168 3
      vertex -11.5577 89.5614 -3
    endloop
  endfacet
  facet normal -0.790155 0.612907 0
    outer loop
      vertex -11.5577 89.5614 -3
      vertex -12.1353 88.8168 3
      vertex -11.5577 89.5614 3
    endloop
  endfacet
  facet normal -0.827081 0.562083 0
    outer loop
      vertex -12.6649 88.0374 -3
      vertex -12.6649 88.0374 3
      vertex -12.1353 88.8168 -3
    endloop
  endfacet
  facet normal -0.827081 0.562083 0
    outer loop
      vertex -12.1353 88.8168 -3
      vertex -12.6649 88.0374 3
      vertex -12.1353 88.8168 3
    endloop
  endfacet
  facet normal -0.860742 0.509041 0
    outer loop
      vertex -13.1446 87.2263 -3
      vertex -13.1446 87.2263 3
      vertex -12.6649 88.0374 -3
    endloop
  endfacet
  facet normal -0.860742 0.509041 0
    outer loop
      vertex -12.6649 88.0374 -3
      vertex -13.1446 87.2263 3
      vertex -12.6649 88.0374 3
    endloop
  endfacet
  facet normal -0.891006 0.453991 0
    outer loop
      vertex -13.5724 86.3867 -3
      vertex -13.5724 86.3867 3
      vertex -13.1446 87.2263 -3
    endloop
  endfacet
  facet normal -0.891006 0.453991 0
    outer loop
      vertex -13.1446 87.2263 -3
      vertex -13.5724 86.3867 3
      vertex -13.1446 87.2263 3
    endloop
  endfacet
  facet normal -0.917755 0.397147 0
    outer loop
      vertex -13.9466 85.5219 -3
      vertex -13.9466 85.5219 3
      vertex -13.5724 86.3867 -3
    endloop
  endfacet
  facet normal -0.917755 0.397147 0
    outer loop
      vertex -13.5724 86.3867 -3
      vertex -13.9466 85.5219 3
      vertex -13.5724 86.3867 3
    endloop
  endfacet
  facet normal -0.940881 0.338739 0
    outer loop
      vertex -14.2658 84.6353 -3
      vertex -14.2658 84.6353 3
      vertex -13.9466 85.5219 -3
    endloop
  endfacet
  facet normal -0.940881 0.338739 0
    outer loop
      vertex -13.9466 85.5219 -3
      vertex -14.2658 84.6353 3
      vertex -13.9466 85.5219 3
    endloop
  endfacet
  facet normal -0.960294 0.27899 0
    outer loop
      vertex -14.5287 83.7303 -3
      vertex -14.5287 83.7303 3
      vertex -14.2658 84.6353 -3
    endloop
  endfacet
  facet normal -0.960294 0.27899 0
    outer loop
      vertex -14.2658 84.6353 -3
      vertex -14.5287 83.7303 3
      vertex -14.2658 84.6353 3
    endloop
  endfacet
  facet normal -0.975917 0.218144 0
    outer loop
      vertex -14.7343 82.8107 -3
      vertex -14.7343 82.8107 3
      vertex -14.5287 83.7303 -3
    endloop
  endfacet
  facet normal -0.975917 0.218144 0
    outer loop
      vertex -14.5287 83.7303 -3
      vertex -14.7343 82.8107 3
      vertex -14.5287 83.7303 3
    endloop
  endfacet
  facet normal -0.987688 0.156435 0
    outer loop
      vertex -14.8817 81.88 -3
      vertex -14.8817 81.88 3
      vertex -14.7343 82.8107 -3
    endloop
  endfacet
  facet normal -0.987688 0.156435 0
    outer loop
      vertex -14.7343 82.8107 -3
      vertex -14.8817 81.88 3
      vertex -14.7343 82.8107 3
    endloop
  endfacet
  facet normal -0.995562 0.0941079 0
    outer loop
      vertex -14.9704 80.9419 -3
      vertex -14.9704 80.9419 3
      vertex -14.8817 81.88 -3
    endloop
  endfacet
  facet normal -0.995562 0.0941079 0
    outer loop
      vertex -14.8817 81.88 -3
      vertex -14.9704 80.9419 3
      vertex -14.8817 81.88 3
    endloop
  endfacet
  facet normal -0.999507 0.0314107 0
    outer loop
      vertex -15 80 -3
      vertex -15 80 3
      vertex -14.9704 80.9419 -3
    endloop
  endfacet
  facet normal -0.999507 0.0314107 0
    outer loop
      vertex -14.9704 80.9419 -3
      vertex -15 80 3
      vertex -14.9704 80.9419 3
    endloop
  endfacet
  facet normal -1 0 0
    outer loop
      vertex -15 2 -3
      vertex -15 2 3
      vertex -15 80 -3
    endloop
  endfacet
  facet normal -1 0 0
    outer loop
      vertex -15 80 -3
      vertex -15 2 3
      vertex -15 80 3
    endloop
  endfacet
  facet normal 0 0 1
    outer loop
      vertex -11.5577 70.4386 3
      vertex -15 2 3
      vertex 15 2 3
    endloop
  endfacet
  facet normal 0 0 1
    outer loop
      vertex 15 80 3
      vertex 14.9704 79.0581 3
      vertex 15 2 3
    endloop
  endfacet
  facet normal 0 0 1
    outer loop
      vertex 14.9704 79.0581 3
      vertex 14.8817 78.12 3
      vertex 15 2 3
    endloop
  endfacet
  facet normal 0 0 1
    outer loop
      vertex 14.8817 78.12 3
      vertex 14.7343 77.1893 3
      vertex 15 2 3
    endloop
  endfacet
  facet normal 0 0 1
    outer loop
      vertex 14.7343 77.1893 3
      vertex 14.5287 76.2697 3
      vertex 15 2 3
    endloop
  endfacet
  facet normal 0 0 1
    outer loop
      vertex 14.5287 76.2697 3
      vertex 14.2658 75.3647 3
      vertex 15 2 3
    endloop
  endfacet
  facet normal 0 0 1
    outer loop
      vertex 14.2658 75.3647 3
      vertex 13.9466 74.4781 3
      vertex 15 2 3
    endloop
  endfacet
  facet normal 0 0 1
    outer loop
      vertex 13.9466 74.4781 3
      vertex 13.5724 73.6133 3
      vertex 15 2 3
    endloop
  endfacet
  facet normal 0 0 1
    outer loop
      vertex 13.5724 73.6133 3
      vertex 13.1446 72.7737 3
      vertex 15 2 3
    endloop
  endfacet
  facet normal 0 0 1
    outer loop
      vertex 13.1446 72.7737 3
      vertex 12.6649 71.9626 3
      vertex 15 2 3
    endloop
  endfacet
  facet normal 0 0 1
    outer loop
      vertex 12.6649 71.9626 3
      vertex 12.1353 71.1832 3
      vertex 15 2 3
    endloop
  endfacet
  facet normal 0 0 1
    outer loop
      vertex 12.1353 71.1832 3
      vertex 11.5577 70.4386 3
      vertex 15 2 3
    endloop
  endfacet
  facet normal 0 0 1
    outer loop
      vertex 11.5577 70.4386 3
      vertex 10.9345 69.7318 3
      vertex 15 2 3
    endloop
  endfacet
  facet normal 0 0 1
    outer loop
      vertex 10.9345 69.7318 3
      vertex 10.2682 69.0655 3
      vertex 15 2 3
    endloop
  endfacet
  facet normal 0 0 1
    outer loop
      vertex 10.2682 69.0655 3
      vertex 9.56136 68.4423 3
      vertex 15 2 3
    endloop
  endfacet
  facet normal 0 0 1
    outer loop
      vertex 9.56136 68.4423 3
      vertex 8.81678 67.8647 3
      vertex 15 2 3
    endloop
  endfacet
  facet normal 0 0 1
    outer loop
      vertex 8.81678 67.8647 3
      vertex 8.0374 67.3351 3
      vertex 15 2 3
    endloop
  endfacet
  facet normal 0 0 1
    outer loop
      vertex 8.0374 67.3351 3
      vertex 7.2263 66.8554 3
      vertex 15 2 3
    endloop
  endfacet
  facet normal 0 0 1
    outer loop
      vertex 7.2263 66.8554 3
      vertex 6.38669 66.4276 3
      vertex 15 2 3
    endloop
  endfacet
  facet normal 0 0 1
    outer loop
      vertex 6.38669 66.4276 3
      vertex 5.52187 66.0534 3
      vertex 15 2 3
    endloop
  endfacet
  facet normal 0 0 1
    outer loop
      vertex 5.52187 66.0534 3
      vertex 4.63525 65.7342 3
      vertex 15 2 3
    endloop
  endfacet
  facet normal 0 0 1
    outer loop
      vertex 4.63525 65.7342 3
      vertex 3.73035 65.4713 3
      vertex 15 2 3
    endloop
  endfacet
  facet normal 0 0 1
    outer loop
      vertex 3.73035 65.4713 3
      vertex 2.81072 65.2657 3
      vertex 15 2 3
    endloop
  endfacet
  facet normal 0 0 1
    outer loop
      vertex 2.81072 65.2657 3
      vertex 1.88 65.1183 3
      vertex 15 2 3
    endloop
  endfacet
  facet normal 0 0 1
    outer loop
      vertex 1.88 65.1183 3
      vertex 0.941858 65.0296 3
      vertex 15 2 3
    endloop
  endfacet
  facet normal 0 0 1
    outer loop
      vertex 0.941858 65.0296 3
      vertex 0 65 3
      vertex 15 2 3
    endloop
  endfacet
  facet normal 0 0 1
    outer loop
      vertex 0 65 3
      vertex -0.941858 65.0296 3
      vertex 15 2 3
    endloop
  endfacet
  facet normal 0 0 1
    outer loop
      vertex -0.941858 65.0296 3
      vertex -1.88 65.1183 3
      vertex 15 2 3
    endloop
  endfacet
  facet normal 0 0 1
    outer loop
      vertex -1.88 65.1183 3
      vertex -2.81072 65.2657 3
      vertex 15 2 3
    endloop
  endfacet
  facet normal 0 0 1
    outer loop
      vertex -2.81072 65.2657 3
      vertex -3.73035 65.4713 3
      vertex 15 2 3
    endloop
  endfacet
  facet normal 0 0 1
    outer loop
      vertex -3.73035 65.4713 3
      vertex -4.63525 65.7342 3
      vertex 15 2 3
    endloop
  endfacet
  facet normal 0 0 1
    outer loop
      vertex -4.63525 65.7342 3
      vertex -5.52187 66.0534 3
      vertex 15 2 3
    endloop
  endfacet
  facet normal 0 0 1
    outer loop
      vertex -5.52187 66.0534 3
      vertex -6.38669 66.4276 3
      vertex 15 2 3
    endloop
  endfacet
  facet normal 0 0 1
    outer loop
      vertex -6.38669 66.4276 3
      vertex -7.2263 66.8554 3
      vertex 15 2 3
    endloop
  endfacet
  facet normal 0 0 1
    outer loop
      vertex -7.2263 66.8554 3
      vertex -8.0374 67.3351 3
      vertex 15 2 3
    endloop
  endfacet
  facet normal 0 0 1
    outer loop
      vertex -8.0374 67.3351 3
      vertex -8.81678 67.8647 3
      vertex 15 2 3
    endloop
  endfacet
  facet normal 0 0 1
    outer loop
      vertex -8.81678 67.8647 3
      vertex -9.56136 68.4423 3
      vertex 15 2 3
    endloop
  endfacet
  facet normal 0 0 1
    outer loop
      vertex -9.56136 68.4423 3
      vertex -10.2682 69.0655 3
      vertex 15 2 3
    endloop
  endfacet
  facet normal 0 0 1
    outer loop
      vertex -10.2682 69.0655 3
      vertex -10.9345 69.7318 3
      vertex 15 2 3
    endloop
  endfacet
  facet normal 0 0 1
    outer loop
      vertex -12.1353 71.1832 3
      vertex -15 2 3
      vertex -11.5577 70.4386 3
    endloop
  endfacet
  facet normal 0 0 1
    outer loop
      vertex -12.6649 71.9626 3
      vertex -15 2 3
      vertex -12.1353 71.1832 3
    endloop
  endfacet
  facet normal 0 0 1
    outer loop
      vertex -13.1446 72.7737 3
      vertex -15 2 3
      vertex -12.6649 71.9626 3
    endloop
  endfacet
  facet normal 0 0 1
    outer loop
      vertex -13.5724 73.6133 3
      vertex -15 2 3
      vertex -13.1446 72.7737 3
    endloop
  endfacet
  facet normal 0 0 1
    outer loop
      vertex -13.9466 74.4781 3
      vertex -15 2 3
      vertex -13.5724 73.6133 3
    endloop
  endfacet
  facet normal 0 0 1
    outer loop
      vertex -14.2658 75.3647 3
      vertex -15 2 3
      vertex -13.9466 74.4781 3
    endloop
  endfacet
  facet normal 0 0 1
    outer loop
      vertex -14.5287 76.2697 3
      vertex -15 2 3
      vertex -14.2658 75.3647 3
    endloop
  endfacet
  facet normal 0 0 1
    outer loop
      vertex -14.7343 77.1893 3
      vertex -15 2 3
      vertex -14.5287 76.2697 3
    endloop
  endfacet
  facet normal 0 0 1
    outer loop
      vertex -14.8817 78.12 3
      vertex -15 2 3
      vertex -14.7343 77.1893 3
    endloop
  endfacet
  facet normal 0 0 1
    outer loop
      vertex -14.9704 79.0581 3
      vertex -15 2 3
      vertex -14.8817 78.12 3
    endloop
  endfacet
  facet normal 0 0 1
    outer loop
      vertex -15 80 3
      vertex -15 2 3
      vertex -14.9704 79.0581 3
    endloop
  endfacet
  facet normal 0 0 1
    outer loop
      vertex -10.9345 69.7318 3
      vertex -11.5577 70.4386 3
      vertex 15 2 3
    endloop
  endfacet
  facet normal 0 0 1
    outer loop
      vertex -14.9704 80.9419 3
      vertex -15 80 3
      vertex -14.9704 79.0581 3
    endloop
  endfacet
  facet normal 0 0 1
    outer loop
      vertex -14.7343 77.1893 3
      vertex -14.9704 80.9419 3
      vertex -14.8817 78.12 3
    endloop
  endfacet
  facet normal 0 0 1
    outer loop
      vertex -14.8817 78.12 3
      vertex -14.9704 80.9419 3
      vertex -14.9704 79.0581 3
    endloop
  endfacet
  facet normal 0 0 1
    outer loop
      vertex -14.5287 76.2697 3
      vertex -14.9704 80.9419 3
      vertex -14.7343 77.1893 3
    endloop
  endfacet
  facet normal 0 0 1
    outer loop
      vertex -14.2658 75.3647 3
      vertex -14.9704 80.9419 3
      vertex -14.5287 76.2697 3
    endloop
  endfacet
  facet normal 0 0 1
    outer loop
      vertex -13.9466 74.4781 3
      vertex -14.9704 80.9419 3
      vertex -14.2658 75.3647 3
    endloop
  endfacet
  facet normal 0 0 1
    outer loop
      vertex -13.5724 73.6133 3
      vertex -14.9704 80.9419 3
      vertex -13.9466 74.4781 3
    endloop
  endfacet
  facet normal 0 0 1
    outer loop
      vertex -13.1446 72.7737 3
      vertex -14.9704 80.9419 3
      vertex -13.5724 73.6133 3
    endloop
  endfacet
  facet normal 0 0 1
    outer loop
      vertex -12.6649 71.9626 3
      vertex -14.9704 80.9419 3
      vertex -13.1446 72.7737 3
    endloop
  endfacet
  facet normal 0 0 1
    outer loop
      vertex -12.1353 71.1832 3
      vertex -14.9704 80.9419 3
      vertex -12.6649 71.9626 3
    endloop
  endfacet
  facet normal 0 0 1
    outer loop
      vertex -11.5577 70.4386 3
      vertex -14.9704 80.9419 3
      vertex -12.1353 71.1832 3
    endloop
  endfacet
  facet normal 0 0 1
    outer loop
      vertex -10.9345 69.7318 3
      vertex -14.9704 80.9419 3
      vertex -11.5577 70.4386 3
    endloop
  endfacet
  facet normal 0 0 1
    outer loop
      vertex -10.2682 69.0655 3
      vertex -14.9704 80.9419 3
      vertex -10.9345 69.7318 3
    endloop
  endfacet
  facet normal 0 0 1
    outer loop
      vertex -9.56136 68.4423 3
      vertex -14.9704 80.9419 3
      vertex -10.2682 69.0655 3
    endloop
  endfacet
  facet normal 0 0 1
    outer loop
      vertex -8.81678 67.8647 3
      vertex -14.9704 80.9419 3
      vertex -9.56136 68.4423 3
    endloop
  endfacet
  facet normal 0 0 1
    outer loop
      vertex -8.0374 67.3351 3
      vertex -14.9704 80.9419 3
      vertex -8.81678 67.8647 3
    endloop
  endfacet
  facet normal 0 0 1
    outer loop
      vertex -7.2263 66.8554 3
      vertex -14.9704 80.9419 3
      vertex -8.0374 67.3351 3
    endloop
  endfacet
  facet normal 0 0 1
    outer loop
      vertex -6.38669 66.4276 3
      vertex -14.9704 80.9419 3
      vertex -7.2263 66.8554 3
    endloop
  endfacet
  facet normal 0 0 1
    outer loop
      vertex -5.52187 66.0534 3
      vertex -14.9704 80.9419 3
      vertex -6.38669 66.4276 3
    endloop
  endfacet
  facet normal 0 0 1
    outer loop
      vertex -4.63525 65.7342 3
      vertex -14.9704 80.9419 3
      vertex -5.52187 66.0534 3
    endloop
  endfacet
  facet normal 0 0 1
    outer loop
      vertex -3.73035 65.4713 3
      vertex -14.9704 80.9419 3
      vertex -4.63525 65.7342 3
    endloop
  endfacet
  facet normal 0 0 1
    outer loop
      vertex -2.81072 65.2657 3
      vertex -14.9704 80.9419 3
      vertex -3.73035 65.4713 3
    endloop
  endfacet
  facet normal 0 0 1
    outer loop
      vertex -1.88 65.1183 3
      vertex -14.9704 80.9419 3
      vertex -2.81072 65.2657 3
    endloop
  endfacet
  facet normal 0 0 1
    outer loop
      vertex -0.941858 65.0296 3
      vertex -14.9704 80.9419 3
      vertex -1.88 65.1183 3
    endloop
  endfacet
  facet normal 0 0 1
    outer loop
      vertex 0 65 3
      vertex -14.9704 80.9419 3
      vertex -0.941858 65.0296 3
    endloop
  endfacet
  facet normal 0 0 1
    outer loop
      vertex 0.941858 65.0296 3
      vertex -14.9704 80.9419 3
      vertex 0 65 3
    endloop
  endfacet
  facet normal 0 0 1
    outer loop
      vertex 1.88 65.1183 3
      vertex -14.9704 80.9419 3
      vertex 0.941858 65.0296 3
    endloop
  endfacet
  facet normal 0 0 1
    outer loop
      vertex 2.81072 65.2657 3
      vertex -14.9704 80.9419 3
      vertex 1.88 65.1183 3
    endloop
  endfacet
  facet normal 0 0 1
    outer loop
      vertex 3.73035 65.4713 3
      vertex -14.9704 80.9419 3
      vertex 2.81072 65.2657 3
    endloop
  endfacet
  facet normal 0 0 1
    outer loop
      vertex 4.63525 65.7342 3
      vertex -14.9704 80.9419 3
      vertex 3.73035 65.4713 3
    endloop
  endfacet
  facet normal 0 0 1
    outer loop
      vertex 5.52187 66.0534 3
      vertex -14.9704 80.9419 3
      vertex 4.63525 65.7342 3
    endloop
  endfacet
  facet normal 0 0 1
    outer loop
      vertex 6.38669 66.4276 3
      vertex -14.9704 80.9419 3
      vertex 5.52187 66.0534 3
    endloop
  endfacet
  facet normal 0 0 1
    outer loop
      vertex 7.2263 66.8554 3
      vertex -14.9704 80.9419 3
      vertex 6.38669 66.4276 3
    endloop
  endfacet
  facet normal 0 0 1
    outer loop
      vertex 8.0374 67.3351 3
      vertex -14.9704 80.9419 3
      vertex 7.2263 66.8554 3
    endloop
  endfacet
  facet normal 0 0 1
    outer loop
      vertex 8.81678 67.8647 3
      vertex -14.9704 80.9419 3
      vertex 8.0374 67.3351 3
    endloop
  endfacet
  facet normal 0 0 1
    outer loop
      vertex 9.56136 68.4423 3
      vertex -14.9704 80.9419 3
      vertex 8.81678 67.8647 3
    endloop
  endfacet
  facet normal 0 0 1
    outer loop
      vertex 10.2682 69.0655 3
      vertex -14.9704 80.9419 3
      vertex 9.56136 68.4423 3
    endloop
  endfacet
  facet normal 0 0 1
    outer loop
      vertex 10.9345 69.7318 3
      vertex -14.9704 80.9419 3
      vertex 10.2682 69.0655 3
    endloop
  endfacet
  facet normal 0 0 1
    outer loop
      vertex 11.5577 70.4386 3
      vertex -14.9704 80.9419 3
      vertex 10.9345 69.7318 3
    endloop
  endfacet
  facet normal 0 0 1
    outer loop
      vertex 12.1353 71.1832 3
      vertex -14.9704 80.9419 3
      vertex 11.5577 70.4386 3
    endloop
  endfacet
  facet normal 0 0 1
    outer loop
      vertex 12.6649 71.9626 3
      vertex -14.9704 80.9419 3
      vertex 12.1353 71.1832 3
    endloop
  endfacet
  facet normal 0 0 1
    outer loop
      vertex 13.1446 72.7737 3
      vertex -14.9704 80.9419 3
      vertex 12.6649 71.9626 3
    endloop
  endfacet
  facet normal 0 0 1
    outer loop
      vertex 13.5724 73.6133 3
      vertex -14.9704 80.9419 3
      vertex 13.1446 72.7737 3
    endloop
  endfacet
  facet normal 0 0 1
    outer loop
      vertex 13.9466 74.4781 3
      vertex -14.9704 80.9419 3
      vertex 13.5724 73.6133 3
    endloop
  endfacet
  facet normal 0 0 1
    outer loop
      vertex 14.2658 75.3647 3
      vertex -14.9704 80.9419 3
      vertex 13.9466 74.4781 3
    endloop
  endfacet
  facet normal 0 0 1
    outer loop
      vertex 14.5287 76.2697 3
      vertex -14.9704 80.9419 3
      vertex 14.2658 75.3647 3
    endloop
  endfacet
  facet normal 0 0 1
    outer loop
      vertex 14.7343 77.1893 3
      vertex -14.9704 80.9419 3
      vertex 14.5287 76.2697 3
    endloop
  endfacet
  facet normal 0 0 1
    outer loop
      vertex 14.8817 78.12 3
      vertex -14.9704 80.9419 3
      vertex 14.7343 77.1893 3
    endloop
  endfacet
  facet normal 0 0 1
    outer loop
      vertex 14.9704 79.0581 3
      vertex -14.9704 80.9419 3
      vertex 14.8817 78.12 3
    endloop
  endfacet
  facet normal 0 0 1
    outer loop
      vertex 15 80 3
      vertex -14.9704 80.9419 3
      vertex 14.9704 79.0581 3
    endloop
  endfacet
  facet normal 0 0 1
    outer loop
      vertex 14.9704 80.9419 3
      vertex -14.9704 80.9419 3
      vertex 15 80 3
    endloop
  endfacet
  facet normal 0 0 1
    outer loop
      vertex 14.8817 81.88 3
      vertex -14.9704 80.9419 3
      vertex 14.9704 80.9419 3
    endloop
  endfacet
  facet normal 0 0 1
    outer loop
      vertex 14.7343 82.8107 3
      vertex -14.9704 80.9419 3
      vertex 14.8817 81.88 3
    endloop
  endfacet
  facet normal 0 0 1
    outer loop
      vertex 14.5287 83.7303 3
      vertex -14.9704 80.9419 3
      vertex 14.7343 82.8107 3
    endloop
  endfacet
  facet normal 0 0 1
    outer loop
      vertex 14.2658 84.6353 3
      vertex -14.9704 80.9419 3
      vertex 14.5287 83.7303 3
    endloop
  endfacet
  facet normal 0 0 1
    outer loop
      vertex 13.9466 85.5219 3
      vertex -14.9704 80.9419 3
      vertex 14.2658 84.6353 3
    endloop
  endfacet
  facet normal 0 0 1
    outer loop
      vertex 13.5724 86.3867 3
      vertex -14.9704 80.9419 3
      vertex 13.9466 85.5219 3
    endloop
  endfacet
  facet normal 0 0 1
    outer loop
      vertex 13.1446 87.2263 3
      vertex -14.9704 80.9419 3
      vertex 13.5724 86.3867 3
    endloop
  endfacet
  facet normal 0 0 1
    outer loop
      vertex 12.6649 88.0374 3
      vertex -14.9704 80.9419 3
      vertex 13.1446 87.2263 3
    endloop
  endfacet
  facet normal 0 0 1
    outer loop
      vertex 12.1353 88.8168 3
      vertex -14.9704 80.9419 3
      vertex 12.6649 88.0374 3
    endloop
  endfacet
  facet normal 0 0 1
    outer loop
      vertex 11.5577 89.5614 3
      vertex -14.9704 80.9419 3
      vertex 12.1353 88.8168 3
    endloop
  endfacet
  facet normal 0 0 1
    outer loop
      vertex 10.9345 90.2682 3
      vertex -14.9704 80.9419 3
      vertex 11.5577 89.5614 3
    endloop
  endfacet
  facet normal 0 0 1
    outer loop
      vertex 10.2682 90.9345 3
      vertex -14.9704 80.9419 3
      vertex 10.9345 90.2682 3
    endloop
  endfacet
  facet normal 0 0 1
    outer loop
      vertex 9.56136 91.5577 3
      vertex -14.9704 80.9419 3
      vertex 10.2682 90.9345 3
    endloop
  endfacet
  facet normal 0 0 1
    outer loop
      vertex 8.81678 92.1353 3
      vertex -14.9704 80.9419 3
      vertex 9.56136 91.5577 3
    endloop
  endfacet
  facet normal 0 0 1
    outer loop
      vertex 8.0374 92.6649 3
      vertex -14.9704 80.9419 3
      vertex 8.81678 92.1353 3
    endloop
  endfacet
  facet normal 0 0 1
    outer loop
      vertex 7.2263 93.1446 3
      vertex -14.9704 80.9419 3
      vertex 8.0374 92.6649 3
    endloop
  endfacet
  facet normal 0 0 1
    outer loop
      vertex 6.38669 93.5724 3
      vertex -14.9704 80.9419 3
      vertex 7.2263 93.1446 3
    endloop
  endfacet
  facet normal 0 0 1
    outer loop
      vertex 5.52187 93.9466 3
      vertex -14.9704 80.9419 3
      vertex 6.38669 93.5724 3
    endloop
  endfacet
  facet normal 0 0 1
    outer loop
      vertex 4.63525 94.2658 3
      vertex -14.9704 80.9419 3
      vertex 5.52187 93.9466 3
    endloop
  endfacet
  facet normal 0 0 1
    outer loop
      vertex 3.73035 94.5287 3
      vertex -14.9704 80.9419 3
      vertex 4.63525 94.2658 3
    endloop
  endfacet
  facet normal 0 0 1
    outer loop
      vertex 2.81072 94.7343 3
      vertex -14.9704 80.9419 3
      vertex 3.73035 94.5287 3
    endloop
  endfacet
  facet normal 0 0 1
    outer loop
      vertex 1.88 94.8817 3
      vertex -14.9704 80.9419 3
      vertex 2.81072 94.7343 3
    endloop
  endfacet
  facet normal 0 0 1
    outer loop
      vertex 0.941858 94.9704 3
      vertex -14.9704 80.9419 3
      vertex 1.88 94.8817 3
    endloop
  endfacet
  facet normal 0 0 1
    outer loop
      vertex 0 95 3
      vertex -14.9704 80.9419 3
      vertex 0.941858 94.9704 3
    endloop
  endfacet
  facet normal 0 0 1
    outer loop
      vertex -0.941858 94.9704 3
      vertex -14.9704 80.9419 3
      vertex 0 95 3
    endloop
  endfacet
  facet normal 0 0 1
    outer loop
      vertex -1.88 94.8817 3
      vertex -14.9704 80.9419 3
      vertex -0.941858 94.9704 3
    endloop
  endfacet
  facet normal 0 0 1
    outer loop
      vertex -2.81072 94.7343 3
      vertex -14.9704 80.9419 3
      vertex -1.88 94.8817 3
    endloop
  endfacet
  facet normal 0 0 1
    outer loop
      vertex -3.73035 94.5287 3
      vertex -14.9704 80.9419 3
      vertex -2.81072 94.7343 3
    endloop
  endfacet
  facet normal 0 0 1
    outer loop
      vertex -4.63525 94.2658 3
      vertex -14.9704 80.9419 3
      vertex -3.73035 94.5287 3
    endloop
  endfacet
  facet normal 0 0 1
    outer loop
      vertex -5.52187 93.9466 3
      vertex -14.9704 80.9419 3
      vertex -4.63525 94.2658 3
    endloop
  endfacet
  facet normal 0 0 1
    outer loop
      vertex -6.38669 93.5724 3
      vertex -14.9704 80.9419 3
      vertex -5.52187 93.9466 3
    endloop
  endfacet
  facet normal 0 0 1
    outer loop
      vertex -7.2263 93.1446 3
      vertex -14.9704 80.9419 3
      vertex -6.38669 93.5724 3
    endloop
  endfacet
  facet normal 0 0 1
    outer loop
      vertex -8.0374 92.6649 3
      vertex -14.9704 80.9419 3
      vertex -7.2263 93.1446 3
    endloop
  endfacet
  facet normal 0 0 1
    outer loop
      vertex -8.81678 92.1353 3
      vertex -14.9704 80.9419 3
      vertex -8.0374 92.6649 3
    endloop
  endfacet
  facet normal 0 0 1
    outer loop
      vertex -9.56136 91.5577 3
      vertex -14.9704 80.9419 3
      vertex -8.81678 92.1353 3
    endloop
  endfacet
  facet normal 0 0 1
    outer loop
      vertex -10.2682 90.9345 3
      vertex -14.9704 80.9419 3
      vertex -9.56136 91.5577 3
    endloop
  endfacet
  facet normal 0 0 1
    outer loop
      vertex -10.9345 90.2682 3
      vertex -14.9704 80.9419 3
      vertex -10.2682 90.9345 3
    endloop
  endfacet
  facet normal 0 0 1
    outer loop
      vertex -11.5577 89.5614 3
      vertex -14.9704 80.9419 3
      vertex -10.9345 90.2682 3
    endloop
  endfacet
  facet normal 0 0 1
    outer loop
      vertex -12.1353 88.8168 3
      vertex -14.9704 80.9419 3
      vertex -11.5577 89.5614 3
    endloop
  endfacet
  facet normal 0 0 1
    outer loop
      vertex -12.6649 88.0374 3
      vertex -14.9704 80.9419 3
      vertex -12.1353 88.8168 3
    endloop
  endfacet
  facet normal 0 0 1
    outer loop
      vertex -13.1446 87.2263 3
      vertex -14.9704 80.9419 3
      vertex -12.6649 88.0374 3
    endloop
  endfacet
  facet normal 0 0 1
    outer loop
      vertex -13.5724 86.3867 3
      vertex -14.9704 80.9419 3
      vertex -13.1446 87.2263 3
    endloop
  endfacet
  facet normal 0 0 1
    outer loop
      vertex -13.9466 85.5219 3
      vertex -14.9704 80.9419 3
      vertex -13.5724 86.3867 3
    endloop
  endfacet
  facet normal 0 0 1
    outer loop
      vertex -14.2658 84.6353 3
      vertex -14.9704 80.9419 3
      vertex -13.9466 85.5219 3
    endloop
  endfacet
  facet normal 0 0 1
    outer loop
      vertex -14.5287 83.7303 3
      vertex -14.9704 80.9419 3
      vertex -14.2658 84.6353 3
    endloop
  endfacet
  facet normal 0 0 1
    outer loop
      vertex -14.7343 82.8107 3
      vertex -14.9704 80.9419 3
      vertex -14.5287 83.7303 3
    endloop
  endfacet
  facet normal 0 0 1
    outer loop
      vertex -14.8817 81.88 3
      vertex -14.9704 80.9419 3
      vertex -14.7343 82.8107 3
    endloop
  endfacet
endsolid OpenSCAD_Model
